<?xml version="1.0" encoding="UTF-8"?>

<!DOCTYPE svg PUBLIC '-//W3C//DTD SVG 1.0//EN' 'http://www.w3.org/TR/2001/REC-SVG-20010904/DTD/svg10.dtd'>
<svg style="fill-opacity:1; color-rendering:auto; color-interpolation:auto; text-rendering:auto; stroke:black; stroke-linecap:square; stroke-miterlimit:10; shape-rendering:auto; stroke-opacity:1; fill:black; stroke-dasharray:none; font-weight:normal; stroke-width:1; font-family:&apos;Dialog&apos;; font-style:normal; stroke-linejoin:miter; font-size:12; stroke-dashoffset:0; image-rendering:auto;" xmlns="http://www.w3.org/2000/svg" width="336" xmlns:xlink="http://www.w3.org/1999/xlink" height="606">
  <!--Generated by the Batik Graphics2D SVG Generator-->
  <defs id="genericDefs" />
  <g>
    <defs id="defs1">
      <clipPath clipPathUnits="userSpaceOnUse" id="clipPath1">
        <path d="M-3 -3 L127 -3 L127 57 L-3 57 L-3 -3 Z" />
      </clipPath>
      <clipPath clipPathUnits="userSpaceOnUse" id="clipPath2">
        <path d="M0 0 L0 43 L120 43 L120 0 Z" />
      </clipPath>
      <clipPath clipPathUnits="userSpaceOnUse" id="clipPath3">
        <path d="M0 0 L0 14 L120 14 L120 0 Z" />
      </clipPath>
      <clipPath clipPathUnits="userSpaceOnUse" id="clipPath4">
        <path d="M-3 -3 L187 -3 L187 197 L-3 197 L-3 -3 Z" />
      </clipPath>
      <clipPath clipPathUnits="userSpaceOnUse" id="clipPath5">
        <path d="M0 0 L0 183 L180 183 L180 0 Z" />
      </clipPath>
      <clipPath clipPathUnits="userSpaceOnUse" id="clipPath6">
        <path d="M0 0 L0 14 L180 14 L180 0 Z" />
      </clipPath>
      <clipPath clipPathUnits="userSpaceOnUse" id="clipPath7">
        <path d="M-3 -3 L97 -3 L97 77 L-3 77 L-3 -3 Z" />
      </clipPath>
      <clipPath clipPathUnits="userSpaceOnUse" id="clipPath8">
        <path d="M0 0 L0 63 L90 63 L90 0 Z" />
      </clipPath>
      <clipPath clipPathUnits="userSpaceOnUse" id="clipPath9">
        <path d="M0 0 L0 14 L90 14 L90 0 Z" />
      </clipPath>
      <clipPath clipPathUnits="userSpaceOnUse" id="clipPath10">
        <path d="M-3 -3 L107 -3 L107 117 L-3 117 L-3 -3 Z" />
      </clipPath>
      <clipPath clipPathUnits="userSpaceOnUse" id="clipPath11">
        <path d="M0 0 L0 103 L100 103 L100 0 Z" />
      </clipPath>
      <clipPath clipPathUnits="userSpaceOnUse" id="clipPath12">
        <path d="M0 0 L0 14 L100 14 L100 0 Z" />
      </clipPath>
      <clipPath clipPathUnits="userSpaceOnUse" id="clipPath13">
        <path d="M-3 -3 L87 -3 L87 57 L-3 57 L-3 -3 Z" />
      </clipPath>
      <clipPath clipPathUnits="userSpaceOnUse" id="clipPath14">
        <path d="M0 0 L0 43 L80 43 L80 0 Z" />
      </clipPath>
      <clipPath clipPathUnits="userSpaceOnUse" id="clipPath15">
        <path d="M0 0 L0 14 L80 14 L80 0 Z" />
      </clipPath>
      <clipPath clipPathUnits="userSpaceOnUse" id="clipPath16">
        <path d="M-3 -3 L87 -3 L87 47 L-3 47 L-3 -3 Z" />
      </clipPath>
      <clipPath clipPathUnits="userSpaceOnUse" id="clipPath17">
        <path d="M0 0 L0 33 L80 33 L80 0 Z" />
      </clipPath>
      <clipPath clipPathUnits="userSpaceOnUse" id="clipPath18">
        <path d="M-3 -3 L87 -3 L87 107 L-3 107 L-3 -3 Z" />
      </clipPath>
      <clipPath clipPathUnits="userSpaceOnUse" id="clipPath19">
        <path d="M0 0 L0 93 L80 93 L80 0 Z" />
      </clipPath>
      <clipPath clipPathUnits="userSpaceOnUse" id="clipPath20">
        <path d="M0 0 L253 0 L253 104 L0 104 L0 0 Z" />
      </clipPath>
      <clipPath clipPathUnits="userSpaceOnUse" id="clipPath21">
        <path d="M0 0 L263 0 L263 104 L0 104 L0 0 Z" />
      </clipPath>
      <clipPath clipPathUnits="userSpaceOnUse" id="clipPath22">
        <path d="M0 0 L173 0 L173 104 L0 104 L0 0 Z" />
      </clipPath>
      <clipPath clipPathUnits="userSpaceOnUse" id="clipPath23">
        <path d="M0 0 L233 0 L233 104 L0 104 L0 0 Z" />
      </clipPath>
    </defs>
    <g style="fill:white; text-rendering:geometricPrecision; stroke:white;">
      <rect x="0" y="0" width="336" style="stroke:none;" height="606" />
    </g>
    <g transform="translate(2,442)" style="font-size:11; fill:rgb(122,207,245); text-rendering:geometricPrecision; font-family:sans-serif; stroke:rgb(122,207,245); font-weight:bold;">
      <rect x="0" y="0" width="120" style="clip-path:url(#clipPath1); stroke:none;" height="50" />
    </g>
    <g transform="translate(2,442)" style="stroke-linecap:butt; font-size:11; text-rendering:geometricPrecision; stroke-linejoin:round; font-family:sans-serif; font-weight:bold; stroke-miterlimit:0;">
      <rect x="0" y="0" width="120" style="clip-path:url(#clipPath1); fill:none;" height="50" />
      <line x1="0" x2="120" y1="14" style="clip-path:url(#clipPath1); fill:none;" y2="14" />
    </g>
    <g style="text-rendering:geometricPrecision; font-size:11; font-family:sans-serif;" transform="translate(2,456)">
      <text x="2" y="13" style="clip-path:url(#clipPath2); stroke:none;" xml:space="preserve">+createComponent()</text>
      <text x="2" y="27" style="clip-path:url(#clipPath2); stroke:none;" xml:space="preserve">+__init__()</text>
    </g>
    <g transform="translate(2,442)" style="text-rendering:geometricPrecision; font-size:11; font-weight:bold; font-family:sans-serif;">
      <text x="37" y="11" style="clip-path:url(#clipPath3); stroke:none;" xml:space="preserve">Daemon</text>
    </g>
    <g transform="translate(2,212)" style="font-size:11; fill:rgb(122,207,245); text-rendering:geometricPrecision; font-family:sans-serif; stroke:rgb(122,207,245); font-weight:bold;">
      <rect x="0" y="0" width="180" style="clip-path:url(#clipPath4); stroke:none;" height="190" />
    </g>
    <g transform="translate(2,212)" style="stroke-linecap:butt; font-size:11; text-rendering:geometricPrecision; stroke-linejoin:round; font-family:sans-serif; font-weight:bold; stroke-miterlimit:0;">
      <rect x="0" y="0" width="180" style="clip-path:url(#clipPath4); fill:none;" height="190" />
      <line x1="0" x2="180" y1="14" style="clip-path:url(#clipPath4); fill:none;" y2="14" />
    </g>
    <g style="text-rendering:geometricPrecision; font-size:11; font-family:sans-serif;" transform="translate(2,226)">
      <text x="2" y="13" style="clip-path:url(#clipPath5); stroke:none;" xml:space="preserve">+generateClientConfiguration()</text>
      <text x="2" y="27" style="clip-path:url(#clipPath5); stroke:none;" xml:space="preserve">+token()</text>
      <text x="2" y="41" style="clip-path:url(#clipPath5); stroke:none;" xml:space="preserve">+onTimeout()</text>
      <text x="2" y="55" style="clip-path:url(#clipPath5); stroke:none;" xml:space="preserve">+onReload()</text>
      <text x="2" y="69" style="clip-path:url(#clipPath5); stroke:none;" xml:space="preserve">+initialize()</text>
      <text x="2" y="83" style="clip-path:url(#clipPath5); stroke:none;" xml:space="preserve">+verify()</text>
      <text x="2" y="97" style="clip-path:url(#clipPath5); stroke:none;" xml:space="preserve">+__init__()</text>
      <text x="2" y="111" style="clip-path:url(#clipPath5); stroke:none;" xml:space="preserve">+_configure()</text>
      <text x="2" y="125" style="clip-path:url(#clipPath5); stroke:none;" xml:space="preserve">+_init()</text>
      <text x="2" y="139" style="clip-path:url(#clipPath5); stroke:none;" xml:space="preserve">+_loadGeneratorParameters()</text>
      <text x="2" y="153" style="clip-path:url(#clipPath5); stroke:none;" xml:space="preserve">+_storeGeneratorParameters()</text>
      <text x="2" y="167" style="clip-path:url(#clipPath5); stroke:none;" xml:space="preserve">+_describe()</text>
    </g>
    <g transform="translate(2,212)" style="text-rendering:geometricPrecision; font-size:11; font-weight:bold; font-family:sans-serif;">
      <text x="59" y="11" style="clip-path:url(#clipPath6); stroke:none;" xml:space="preserve">IDDService</text>
    </g>
    <g transform="translate(2,532)" style="font-size:11; fill:rgb(122,207,245); text-rendering:geometricPrecision; font-family:sans-serif; stroke:rgb(122,207,245); font-weight:bold;">
      <rect x="0" y="0" width="90" style="clip-path:url(#clipPath7); stroke:none;" height="70" />
    </g>
    <g transform="translate(2,532)" style="stroke-linecap:butt; font-size:11; text-rendering:geometricPrecision; stroke-linejoin:round; font-family:sans-serif; font-weight:bold; stroke-miterlimit:0;">
      <rect x="0" y="0" width="90" style="clip-path:url(#clipPath7); fill:none;" height="70" />
      <line x1="0" x2="90" y1="14" style="clip-path:url(#clipPath7); fill:none;" y2="14" />
    </g>
    <g style="text-rendering:geometricPrecision; font-size:11; font-family:sans-serif;" transform="translate(2,546)">
      <text x="2" y="13" style="clip-path:url(#clipPath8); stroke:none;" xml:space="preserve">+token()</text>
      <text x="2" y="27" style="clip-path:url(#clipPath8); stroke:none;" xml:space="preserve">+__init__()</text>
      <text x="2" y="41" style="clip-path:url(#clipPath8); stroke:none;" xml:space="preserve">+_configure()</text>
    </g>
    <g transform="translate(2,532)" style="text-rendering:geometricPrecision; font-size:11; font-weight:bold; font-family:sans-serif;">
      <text x="13" y="11" style="clip-path:url(#clipPath9); stroke:none;" xml:space="preserve">IDDSession</text>
    </g>
    <g transform="translate(2,82)" style="font-size:11; fill:rgb(122,207,245); text-rendering:geometricPrecision; font-family:sans-serif; stroke:rgb(122,207,245); font-weight:bold;">
      <rect x="0" y="0" width="100" style="clip-path:url(#clipPath10); stroke:none;" height="110" />
    </g>
    <g transform="translate(2,82)" style="stroke-linecap:butt; font-size:11; text-rendering:geometricPrecision; stroke-linejoin:round; font-family:sans-serif; font-weight:bold; stroke-miterlimit:0;">
      <rect x="0" y="0" width="100" style="clip-path:url(#clipPath10); fill:none;" height="110" />
      <line x1="0" x2="100" y1="14" style="clip-path:url(#clipPath10); fill:none;" y2="14" />
    </g>
    <g style="text-rendering:geometricPrecision; font-size:11; font-family:sans-serif;" transform="translate(2,96)">
      <text x="2" y="13" style="clip-path:url(#clipPath11); stroke:none;" xml:space="preserve">+decode()</text>
      <text x="2" y="27" style="clip-path:url(#clipPath11); stroke:none;" xml:space="preserve">+encode()</text>
      <text x="2" y="41" style="clip-path:url(#clipPath11); stroke:none;" xml:space="preserve">+__init__()</text>
      <text x="2" y="55" style="clip-path:url(#clipPath11); stroke:none;" xml:space="preserve">+_init()</text>
      <text x="2" y="69" style="clip-path:url(#clipPath11); stroke:none;" xml:space="preserve">+_encode()</text>
      <text x="2" y="83" style="clip-path:url(#clipPath11); stroke:none;" xml:space="preserve">+_hash()</text>
    </g>
    <g transform="translate(2,82)" style="text-rendering:geometricPrecision; font-size:11; font-weight:bold; font-family:sans-serif;">
      <text x="10" y="11" style="clip-path:url(#clipPath12); stroke:none;" xml:space="preserve">RecordLocator</text>
    </g>
    <g transform="translate(2,2)" style="font-size:11; fill:rgb(122,207,245); text-rendering:geometricPrecision; font-family:sans-serif; stroke:rgb(122,207,245); font-weight:bold;">
      <rect x="0" y="0" width="80" style="clip-path:url(#clipPath13); stroke:none;" height="50" />
    </g>
    <g transform="translate(2,2)" style="stroke-linecap:butt; font-size:11; text-rendering:geometricPrecision; stroke-linejoin:round; font-family:sans-serif; font-weight:bold; stroke-miterlimit:0;">
      <rect x="0" y="0" width="80" style="clip-path:url(#clipPath13); fill:none;" height="50" />
      <line x1="0" x2="80" y1="14" style="clip-path:url(#clipPath13); fill:none;" y2="14" />
    </g>
    <g style="text-rendering:geometricPrecision; font-size:11; font-family:sans-serif;" transform="translate(2,16)">
      <text x="2" y="13" style="clip-path:url(#clipPath14); stroke:none;" xml:space="preserve">+__init__()</text>
      <text x="2" y="27" style="clip-path:url(#clipPath14); stroke:none;" xml:space="preserve">+__str__()</text>
    </g>
    <g transform="translate(2,2)" style="text-rendering:geometricPrecision; font-size:11; font-weight:bold; font-family:sans-serif;">
      <text x="22" y="11" style="clip-path:url(#clipPath15); stroke:none;" xml:space="preserve">Token</text>
    </g>
    <g transform="translate(252,92)" style="font-size:11; fill:rgb(122,207,245); text-rendering:geometricPrecision; font-family:sans-serif; stroke:rgb(122,207,245); font-weight:bold;">
      <rect x="0" y="0" width="80" style="clip-path:url(#clipPath16); stroke:none;" height="40" />
    </g>
    <g transform="translate(252,92)" style="stroke-linecap:butt; font-size:11; text-rendering:geometricPrecision; stroke-linejoin:round; font-family:sans-serif; font-weight:bold; stroke-miterlimit:0;">
      <rect x="0" y="0" width="80" style="clip-path:url(#clipPath16); fill:none;" height="40" />
      <line x1="0" x2="80" y1="14" style="clip-path:url(#clipPath16); fill:none;" y2="14" />
    </g>
    <g style="text-rendering:geometricPrecision; font-size:11; font-family:sans-serif;" transform="translate(252,106)">
      <text x="2" y="13" style="clip-path:url(#clipPath17); stroke:none;" xml:space="preserve">+alphabet</text>
    </g>
    <g transform="translate(252,92)" style="text-rendering:geometricPrecision; font-size:11; font-weight:bold; font-family:sans-serif;">
      <text x="13" y="11" style="clip-path:url(#clipPath15); stroke:none;" xml:space="preserve">Inventory</text>
    </g>
    <g transform="translate(252,552)" style="font-size:11; fill:rgb(122,207,245); text-rendering:geometricPrecision; font-family:sans-serif; stroke:rgb(122,207,245); font-weight:bold;">
      <rect x="0" y="0" width="80" style="clip-path:url(#clipPath16); stroke:none;" height="40" />
    </g>
    <g transform="translate(252,552)" style="stroke-linecap:butt; font-size:11; text-rendering:geometricPrecision; stroke-linejoin:round; font-family:sans-serif; font-weight:bold; stroke-miterlimit:0;">
      <rect x="0" y="0" width="80" style="clip-path:url(#clipPath16); fill:none;" height="40" />
      <line x1="0" x2="80" y1="14" style="clip-path:url(#clipPath16); fill:none;" y2="14" />
    </g>
    <g style="text-rendering:geometricPrecision; font-size:11; font-family:sans-serif;" transform="translate(252,566)">
      <text x="2" y="13" style="clip-path:url(#clipPath17); stroke:none;" xml:space="preserve">+marshaller</text>
    </g>
    <g transform="translate(252,552)" style="text-rendering:geometricPrecision; font-size:11; font-weight:bold; font-family:sans-serif;">
      <text x="13" y="11" style="clip-path:url(#clipPath15); stroke:none;" xml:space="preserve">Inventory</text>
    </g>
    <g transform="translate(252,232)" style="font-size:11; fill:rgb(122,207,245); text-rendering:geometricPrecision; font-family:sans-serif; stroke:rgb(122,207,245); font-weight:bold;">
      <rect x="0" y="0" width="80" style="clip-path:url(#clipPath18); stroke:none;" height="100" />
    </g>
    <g transform="translate(252,232)" style="stroke-linecap:butt; font-size:11; text-rendering:geometricPrecision; stroke-linejoin:round; font-family:sans-serif; font-weight:bold; stroke-miterlimit:0;">
      <rect x="0" y="0" width="80" style="clip-path:url(#clipPath18); fill:none;" height="100" />
      <line x1="0" x2="80" y1="14" style="clip-path:url(#clipPath18); fill:none;" y2="14" />
    </g>
    <g style="text-rendering:geometricPrecision; font-size:11; font-family:sans-serif;" transform="translate(252,246)">
      <text x="2" y="13" style="clip-path:url(#clipPath19); stroke:none;" xml:space="preserve">+tid</text>
      <text x="2" y="27" style="clip-path:url(#clipPath19); stroke:none;" xml:space="preserve">+date</text>
      <text x="2" y="41" style="clip-path:url(#clipPath19); stroke:none;" xml:space="preserve">+configfile</text>
      <text x="2" y="55" style="clip-path:url(#clipPath19); stroke:none;" xml:space="preserve">+marshaller</text>
      <text x="2" y="69" style="clip-path:url(#clipPath19); stroke:none;" xml:space="preserve">+locator</text>
    </g>
    <g transform="translate(252,232)" style="text-rendering:geometricPrecision; font-size:11; font-weight:bold; font-family:sans-serif;">
      <text x="13" y="11" style="clip-path:url(#clipPath15); stroke:none;" xml:space="preserve">Inventory</text>
    </g>
    <g transform="translate(252,442)" style="font-size:11; fill:rgb(122,207,245); text-rendering:geometricPrecision; font-family:sans-serif; stroke:rgb(122,207,245); font-weight:bold;">
      <rect x="0" y="0" width="80" style="clip-path:url(#clipPath16); stroke:none;" height="40" />
    </g>
    <g transform="translate(252,442)" style="stroke-linecap:butt; font-size:11; text-rendering:geometricPrecision; stroke-linejoin:round; font-family:sans-serif; font-weight:bold; stroke-miterlimit:0;">
      <rect x="0" y="0" width="80" style="clip-path:url(#clipPath16); fill:none;" height="40" />
      <line x1="0" x2="80" y1="14" style="clip-path:url(#clipPath16); fill:none;" y2="14" />
    </g>
    <g style="text-rendering:geometricPrecision; font-size:11; font-family:sans-serif;" transform="translate(252,456)">
      <text x="2" y="13" style="clip-path:url(#clipPath17); stroke:none;" xml:space="preserve">+name</text>
    </g>
    <g transform="translate(252,442)" style="text-rendering:geometricPrecision; font-size:11; font-weight:bold; font-family:sans-serif;">
      <text x="13" y="11" style="clip-path:url(#clipPath15); stroke:none;" xml:space="preserve">Inventory</text>
    </g>
    <g transform="translate(52,62)" style="font-size:11; stroke-linecap:butt; text-rendering:geometricPrecision; font-family:sans-serif; stroke-linejoin:round;">
      <line x1="50" x2="199" y1="50" style="clip-path:url(#clipPath20); fill:none;" y2="50" />
      <circle style="fill:none; clip-path:url(#clipPath20);" r="6" cx="56" cy="50" />
      <line x1="56" x2="56" y1="45" style="clip-path:url(#clipPath20); fill:none;" y2="55" />
    </g>
    <g transform="translate(42,522)" style="font-size:11; stroke-linecap:butt; text-rendering:geometricPrecision; font-family:sans-serif; stroke-linejoin:round;">
      <line x1="50" x2="209" y1="50" style="clip-path:url(#clipPath21); fill:none;" y2="50" />
      <circle style="fill:none; clip-path:url(#clipPath21);" r="6" cx="56" cy="50" />
      <line x1="56" x2="56" y1="45" style="clip-path:url(#clipPath21); fill:none;" y2="55" />
    </g>
    <g transform="translate(132,222)" style="font-size:11; stroke-linecap:butt; text-rendering:geometricPrecision; font-family:sans-serif; stroke-linejoin:round;">
      <line x1="50" x2="119" y1="50" style="clip-path:url(#clipPath22); fill:none;" y2="50" />
      <circle style="fill:none; clip-path:url(#clipPath22);" r="6" cx="56" cy="50" />
      <line x1="56" x2="56" y1="45" style="clip-path:url(#clipPath22); fill:none;" y2="55" />
    </g>
    <g transform="translate(72,422)" style="font-size:11; stroke-linecap:butt; text-rendering:geometricPrecision; font-family:sans-serif; stroke-linejoin:round;">
      <line x1="50" x2="179" y1="50" style="clip-path:url(#clipPath23); fill:none;" y2="50" />
      <circle style="fill:none; clip-path:url(#clipPath23);" r="6" cx="56" cy="50" />
      <line x1="56" x2="56" y1="45" style="clip-path:url(#clipPath23); fill:none;" y2="55" />
    </g>
  </g>
</svg>
