<?xml version="1.0" encoding="UTF-8"?>

<!DOCTYPE svg PUBLIC '-//W3C//DTD SVG 1.0//EN' 'http://www.w3.org/TR/2001/REC-SVG-20010904/DTD/svg10.dtd'>
<svg style="fill-opacity:1; color-rendering:auto; color-interpolation:auto; text-rendering:auto; stroke:black; stroke-linecap:square; stroke-miterlimit:10; shape-rendering:auto; stroke-opacity:1; fill:black; stroke-dasharray:none; font-weight:normal; stroke-width:1; font-family:&apos;Dialog&apos;; font-style:normal; stroke-linejoin:miter; font-size:12; stroke-dashoffset:0; image-rendering:auto;" xmlns="http://www.w3.org/2000/svg" width="306" xmlns:xlink="http://www.w3.org/1999/xlink" height="646">
  <!--Generated by the Batik Graphics2D SVG Generator-->
  <defs id="genericDefs" />
  <g>
    <defs id="defs1">
      <clipPath clipPathUnits="userSpaceOnUse" id="clipPath1">
        <path d="M-3 -3 L117 -3 L117 47 L-3 47 L-3 -3 Z" />
      </clipPath>
      <clipPath clipPathUnits="userSpaceOnUse" id="clipPath2">
        <path d="M0 0 L0 33 L110 33 L110 0 Z" />
      </clipPath>
      <clipPath clipPathUnits="userSpaceOnUse" id="clipPath3">
        <path d="M0 0 L0 14 L110 14 L110 0 Z" />
      </clipPath>
      <clipPath clipPathUnits="userSpaceOnUse" id="clipPath4">
        <path d="M-3 -3 L127 -3 L127 57 L-3 57 L-3 -3 Z" />
      </clipPath>
      <clipPath clipPathUnits="userSpaceOnUse" id="clipPath5">
        <path d="M0 0 L0 43 L120 43 L120 0 Z" />
      </clipPath>
      <clipPath clipPathUnits="userSpaceOnUse" id="clipPath6">
        <path d="M0 0 L0 14 L120 14 L120 0 Z" />
      </clipPath>
      <clipPath clipPathUnits="userSpaceOnUse" id="clipPath7">
        <path d="M-3 -3 L187 -3 L187 177 L-3 177 L-3 -3 Z" />
      </clipPath>
      <clipPath clipPathUnits="userSpaceOnUse" id="clipPath8">
        <path d="M0 0 L0 163 L180 163 L180 0 Z" />
      </clipPath>
      <clipPath clipPathUnits="userSpaceOnUse" id="clipPath9">
        <path d="M0 0 L0 14 L180 14 L180 0 Z" />
      </clipPath>
      <clipPath clipPathUnits="userSpaceOnUse" id="clipPath10">
        <path d="M-3 -3 L97 -3 L97 107 L-3 107 L-3 -3 Z" />
      </clipPath>
      <clipPath clipPathUnits="userSpaceOnUse" id="clipPath11">
        <path d="M0 0 L0 93 L90 93 L90 0 Z" />
      </clipPath>
      <clipPath clipPathUnits="userSpaceOnUse" id="clipPath12">
        <path d="M0 0 L0 14 L90 14 L90 0 Z" />
      </clipPath>
      <clipPath clipPathUnits="userSpaceOnUse" id="clipPath13">
        <path d="M-3 -3 L117 -3 L117 217 L-3 217 L-3 -3 Z" />
      </clipPath>
      <clipPath clipPathUnits="userSpaceOnUse" id="clipPath14">
        <path d="M0 0 L0 203 L110 203 L110 0 Z" />
      </clipPath>
      <clipPath clipPathUnits="userSpaceOnUse" id="clipPath15">
        <path d="M-3 -3 L87 -3 L87 57 L-3 57 L-3 -3 Z" />
      </clipPath>
      <clipPath clipPathUnits="userSpaceOnUse" id="clipPath16">
        <path d="M0 0 L0 43 L80 43 L80 0 Z" />
      </clipPath>
      <clipPath clipPathUnits="userSpaceOnUse" id="clipPath17">
        <path d="M0 0 L0 14 L80 14 L80 0 Z" />
      </clipPath>
      <clipPath clipPathUnits="userSpaceOnUse" id="clipPath18">
        <path d="M-3 -3 L87 -3 L87 47 L-3 47 L-3 -3 Z" />
      </clipPath>
      <clipPath clipPathUnits="userSpaceOnUse" id="clipPath19">
        <path d="M0 0 L0 33 L80 33 L80 0 Z" />
      </clipPath>
      <clipPath clipPathUnits="userSpaceOnUse" id="clipPath20">
        <path d="M-3 -3 L107 -3 L107 87 L-3 87 L-3 -3 Z" />
      </clipPath>
      <clipPath clipPathUnits="userSpaceOnUse" id="clipPath21">
        <path d="M0 0 L0 73 L100 73 L100 0 Z" />
      </clipPath>
      <clipPath clipPathUnits="userSpaceOnUse" id="clipPath22">
        <path d="M0 0 L0 14 L100 14 L100 0 Z" />
      </clipPath>
      <clipPath clipPathUnits="userSpaceOnUse" id="clipPath23">
        <path d="M0 0 L193 0 L193 104 L0 104 L0 0 Z" />
      </clipPath>
      <clipPath clipPathUnits="userSpaceOnUse" id="clipPath24">
        <path d="M0 0 L213 0 L213 104 L0 104 L0 0 Z" />
      </clipPath>
      <clipPath clipPathUnits="userSpaceOnUse" id="clipPath25">
        <path d="M0 0 L123 0 L123 104 L0 104 L0 0 Z" />
      </clipPath>
      <clipPath clipPathUnits="userSpaceOnUse" id="clipPath26">
        <path d="M0 0 L183 0 L183 104 L0 104 L0 0 Z" />
      </clipPath>
    </defs>
    <g style="fill:white; text-rendering:geometricPrecision; stroke:white;">
      <rect x="0" y="0" width="306" style="stroke:none;" height="646" />
    </g>
    <g transform="translate(2,2)" style="font-size:11; fill:rgb(122,207,245); text-rendering:geometricPrecision; font-family:sans-serif; stroke:rgb(122,207,245); font-weight:bold;">
      <rect x="0" y="0" width="110" style="clip-path:url(#clipPath1); stroke:none;" height="40" />
    </g>
    <g transform="translate(2,2)" style="stroke-linecap:butt; font-size:11; text-rendering:geometricPrecision; stroke-linejoin:round; font-family:sans-serif; font-weight:bold; stroke-miterlimit:0;">
      <rect x="0" y="0" width="110" style="clip-path:url(#clipPath1); fill:none;" height="40" />
      <line x1="0" x2="110" y1="14" style="clip-path:url(#clipPath1); fill:none;" y2="14" />
    </g>
    <g style="text-rendering:geometricPrecision; font-size:11; font-family:sans-serif;" transform="translate(2,16)">
      <text x="2" y="13" style="clip-path:url(#clipPath2); stroke:none;" xml:space="preserve">+__init__()</text>
    </g>
    <g transform="translate(2,2)" style="text-rendering:geometricPrecision; font-size:11; font-weight:bold; font-family:sans-serif;">
      <text x="14" y="11" style="clip-path:url(#clipPath3); stroke:none;" xml:space="preserve">Authentication</text>
    </g>
    <g transform="translate(2,72)" style="font-size:11; fill:rgb(122,207,245); text-rendering:geometricPrecision; font-family:sans-serif; stroke:rgb(122,207,245); font-weight:bold;">
      <rect x="0" y="0" width="120" style="clip-path:url(#clipPath4); stroke:none;" height="50" />
    </g>
    <g transform="translate(2,72)" style="stroke-linecap:butt; font-size:11; text-rendering:geometricPrecision; stroke-linejoin:round; font-family:sans-serif; font-weight:bold; stroke-miterlimit:0;">
      <rect x="0" y="0" width="120" style="clip-path:url(#clipPath4); fill:none;" height="50" />
      <line x1="0" x2="120" y1="14" style="clip-path:url(#clipPath4); fill:none;" y2="14" />
    </g>
    <g style="text-rendering:geometricPrecision; font-size:11; font-family:sans-serif;" transform="translate(2,86)">
      <text x="2" y="13" style="clip-path:url(#clipPath5); stroke:none;" xml:space="preserve">+createComponent()</text>
      <text x="2" y="27" style="clip-path:url(#clipPath5); stroke:none;" xml:space="preserve">+__init__()</text>
    </g>
    <g transform="translate(2,72)" style="text-rendering:geometricPrecision; font-size:11; font-weight:bold; font-family:sans-serif;">
      <text x="37" y="11" style="clip-path:url(#clipPath6); stroke:none;" xml:space="preserve">Daemon</text>
    </g>
    <g transform="translate(2,472)" style="font-size:11; fill:rgb(122,207,245); text-rendering:geometricPrecision; font-family:sans-serif; stroke:rgb(122,207,245); font-weight:bold;">
      <rect x="0" y="0" width="180" style="clip-path:url(#clipPath7); stroke:none;" height="170" />
    </g>
    <g transform="translate(2,472)" style="stroke-linecap:butt; font-size:11; text-rendering:geometricPrecision; stroke-linejoin:round; font-family:sans-serif; font-weight:bold; stroke-miterlimit:0;">
      <rect x="0" y="0" width="180" style="clip-path:url(#clipPath7); fill:none;" height="170" />
      <line x1="0" x2="180" y1="14" style="clip-path:url(#clipPath7); fill:none;" y2="14" />
    </g>
    <g style="text-rendering:geometricPrecision; font-size:11; font-family:sans-serif;" transform="translate(2,486)">
      <text x="2" y="13" style="clip-path:url(#clipPath8); stroke:none;" xml:space="preserve">+generateClientConfiguration()</text>
      <text x="2" y="27" style="clip-path:url(#clipPath8); stroke:none;" xml:space="preserve">+login()</text>
      <text x="2" y="41" style="clip-path:url(#clipPath8); stroke:none;" xml:space="preserve">+refresh()</text>
      <text x="2" y="55" style="clip-path:url(#clipPath8); stroke:none;" xml:space="preserve">+verify()</text>
      <text x="2" y="69" style="clip-path:url(#clipPath8); stroke:none;" xml:space="preserve">+logout()</text>
      <text x="2" y="83" style="clip-path:url(#clipPath8); stroke:none;" xml:space="preserve">+onTimeout()</text>
      <text x="2" y="97" style="clip-path:url(#clipPath8); stroke:none;" xml:space="preserve">+onReload()</text>
      <text x="2" y="111" style="clip-path:url(#clipPath8); stroke:none;" xml:space="preserve">+__init__()</text>
      <text x="2" y="125" style="clip-path:url(#clipPath8); stroke:none;" xml:space="preserve">+_configure()</text>
      <text x="2" y="139" style="clip-path:url(#clipPath8); stroke:none;" xml:space="preserve">+_createTicket()</text>
    </g>
    <g transform="translate(2,472)" style="text-rendering:geometricPrecision; font-size:11; font-weight:bold; font-family:sans-serif;">
      <text x="60" y="11" style="clip-path:url(#clipPath9); stroke:none;" xml:space="preserve">IPAService</text>
    </g>
    <g transform="translate(2,132)" style="font-size:11; fill:rgb(122,207,245); text-rendering:geometricPrecision; font-family:sans-serif; stroke:rgb(122,207,245); font-weight:bold;">
      <rect x="0" y="0" width="90" style="clip-path:url(#clipPath10); stroke:none;" height="100" />
    </g>
    <g transform="translate(2,132)" style="stroke-linecap:butt; font-size:11; text-rendering:geometricPrecision; stroke-linejoin:round; font-family:sans-serif; font-weight:bold; stroke-miterlimit:0;">
      <rect x="0" y="0" width="90" style="clip-path:url(#clipPath10); fill:none;" height="100" />
      <line x1="0" x2="90" y1="14" style="clip-path:url(#clipPath10); fill:none;" y2="14" />
    </g>
    <g style="text-rendering:geometricPrecision; font-size:11; font-family:sans-serif;" transform="translate(2,146)">
      <text x="2" y="13" style="clip-path:url(#clipPath11); stroke:none;" xml:space="preserve">+login()</text>
      <text x="2" y="27" style="clip-path:url(#clipPath11); stroke:none;" xml:space="preserve">+refresh()</text>
      <text x="2" y="41" style="clip-path:url(#clipPath11); stroke:none;" xml:space="preserve">+logout()</text>
      <text x="2" y="55" style="clip-path:url(#clipPath11); stroke:none;" xml:space="preserve">+__init__()</text>
      <text x="2" y="69" style="clip-path:url(#clipPath11); stroke:none;" xml:space="preserve">+_configure()</text>
    </g>
    <g transform="translate(2,132)" style="text-rendering:geometricPrecision; font-size:11; font-weight:bold; font-family:sans-serif;">
      <text x="14" y="11" style="clip-path:url(#clipPath12); stroke:none;" xml:space="preserve">IPASession</text>
    </g>
    <g transform="translate(2,242)" style="font-size:11; fill:rgb(122,207,245); text-rendering:geometricPrecision; font-family:sans-serif; stroke:rgb(122,207,245); font-weight:bold;">
      <rect x="0" y="0" width="110" style="clip-path:url(#clipPath13); stroke:none;" height="210" />
    </g>
    <g transform="translate(2,242)" style="stroke-linecap:butt; font-size:11; text-rendering:geometricPrecision; stroke-linejoin:round; font-family:sans-serif; font-weight:bold; stroke-miterlimit:0;">
      <rect x="0" y="0" width="110" style="clip-path:url(#clipPath13); fill:none;" height="210" />
      <line x1="0" x2="110" y1="14" style="clip-path:url(#clipPath13); fill:none;" y2="14" />
    </g>
    <g style="text-rendering:geometricPrecision; font-size:11; font-family:sans-serif;" transform="translate(2,256)">
      <text x="2" y="13" style="clip-path:url(#clipPath14); stroke:none;" xml:space="preserve">+authenticate()</text>
      <text x="2" y="27" style="clip-path:url(#clipPath14); stroke:none;" xml:space="preserve">+register()</text>
      <text x="2" y="41" style="clip-path:url(#clipPath14); stroke:none;" xml:space="preserve">+load()</text>
      <text x="2" y="55" style="clip-path:url(#clipPath14); stroke:none;" xml:space="preserve">+save()</text>
      <text x="2" y="69" style="clip-path:url(#clipPath14); stroke:none;" xml:space="preserve">+onReload()</text>
      <text x="2" y="83" style="clip-path:url(#clipPath14); stroke:none;" xml:space="preserve">+__init__()</text>
      <text x="2" y="97" style="clip-path:url(#clipPath14); stroke:none;" xml:space="preserve">+_init()</text>
      <text x="2" y="111" style="clip-path:url(#clipPath14); stroke:none;" xml:space="preserve">+_cryptEncoder()</text>
      <text x="2" y="125" style="clip-path:url(#clipPath14); stroke:none;" xml:space="preserve">+_cryptDecoder()</text>
      <text x="2" y="139" style="clip-path:url(#clipPath14); stroke:none;" xml:space="preserve">+_md5Encoder()</text>
      <text x="2" y="153" style="clip-path:url(#clipPath14); stroke:none;" xml:space="preserve">+_md5Decoder()</text>
      <text x="2" y="167" style="clip-path:url(#clipPath14); stroke:none;" xml:space="preserve">+_shaEncoder()</text>
      <text x="2" y="181" style="clip-path:url(#clipPath14); stroke:none;" xml:space="preserve">+_shaDecoder()</text>
    </g>
    <g transform="translate(2,242)" style="text-rendering:geometricPrecision; font-size:11; font-weight:bold; font-family:sans-serif;">
      <text x="19" y="11" style="clip-path:url(#clipPath3); stroke:none;" xml:space="preserve">UserManager</text>
    </g>
    <g transform="translate(202,272)" style="font-size:11; fill:rgb(122,207,245); text-rendering:geometricPrecision; font-family:sans-serif; stroke:rgb(122,207,245); font-weight:bold;">
      <rect x="0" y="0" width="80" style="clip-path:url(#clipPath15); stroke:none;" height="50" />
    </g>
    <g transform="translate(202,272)" style="stroke-linecap:butt; font-size:11; text-rendering:geometricPrecision; stroke-linejoin:round; font-family:sans-serif; font-weight:bold; stroke-miterlimit:0;">
      <rect x="0" y="0" width="80" style="clip-path:url(#clipPath15); fill:none;" height="50" />
      <line x1="0" x2="80" y1="14" style="clip-path:url(#clipPath15); fill:none;" y2="14" />
    </g>
    <g style="text-rendering:geometricPrecision; font-size:11; font-family:sans-serif;" transform="translate(202,286)">
      <text x="2" y="13" style="clip-path:url(#clipPath16); stroke:none;" xml:space="preserve">+passwd</text>
      <text x="2" y="27" style="clip-path:url(#clipPath16); stroke:none;" xml:space="preserve">+weaver</text>
    </g>
    <g transform="translate(202,272)" style="text-rendering:geometricPrecision; font-size:11; font-weight:bold; font-family:sans-serif;">
      <text x="13" y="11" style="clip-path:url(#clipPath17); stroke:none;" xml:space="preserve">Inventory</text>
    </g>
    <g transform="translate(202,132)" style="font-size:11; fill:rgb(122,207,245); text-rendering:geometricPrecision; font-family:sans-serif; stroke:rgb(122,207,245); font-weight:bold;">
      <rect x="0" y="0" width="80" style="clip-path:url(#clipPath18); stroke:none;" height="40" />
    </g>
    <g transform="translate(202,132)" style="stroke-linecap:butt; font-size:11; text-rendering:geometricPrecision; stroke-linejoin:round; font-family:sans-serif; font-weight:bold; stroke-miterlimit:0;">
      <rect x="0" y="0" width="80" style="clip-path:url(#clipPath18); fill:none;" height="40" />
      <line x1="0" x2="80" y1="14" style="clip-path:url(#clipPath18); fill:none;" y2="14" />
    </g>
    <g style="text-rendering:geometricPrecision; font-size:11; font-family:sans-serif;" transform="translate(202,146)">
      <text x="2" y="13" style="clip-path:url(#clipPath19); stroke:none;" xml:space="preserve">+marshaller</text>
    </g>
    <g transform="translate(202,132)" style="text-rendering:geometricPrecision; font-size:11; font-weight:bold; font-family:sans-serif;">
      <text x="13" y="11" style="clip-path:url(#clipPath17); stroke:none;" xml:space="preserve">Inventory</text>
    </g>
    <g transform="translate(202,492)" style="font-size:11; fill:rgb(122,207,245); text-rendering:geometricPrecision; font-family:sans-serif; stroke:rgb(122,207,245); font-weight:bold;">
      <rect x="0" y="0" width="100" style="clip-path:url(#clipPath20); stroke:none;" height="80" />
    </g>
    <g transform="translate(202,492)" style="stroke-linecap:butt; font-size:11; text-rendering:geometricPrecision; stroke-linejoin:round; font-family:sans-serif; font-weight:bold; stroke-miterlimit:0;">
      <rect x="0" y="0" width="100" style="clip-path:url(#clipPath20); fill:none;" height="80" />
      <line x1="0" x2="100" y1="14" style="clip-path:url(#clipPath20); fill:none;" y2="14" />
    </g>
    <g style="text-rendering:geometricPrecision; font-size:11; font-family:sans-serif;" transform="translate(202,506)">
      <text x="2" y="13" style="clip-path:url(#clipPath21); stroke:none;" xml:space="preserve">+ticketOnce</text>
      <text x="2" y="27" style="clip-path:url(#clipPath21); stroke:none;" xml:space="preserve">+ticketDuration</text>
      <text x="2" y="41" style="clip-path:url(#clipPath21); stroke:none;" xml:space="preserve">+marshaller</text>
      <text x="2" y="55" style="clip-path:url(#clipPath21); stroke:none;" xml:space="preserve">+userManager</text>
    </g>
    <g transform="translate(202,492)" style="text-rendering:geometricPrecision; font-size:11; font-weight:bold; font-family:sans-serif;">
      <text x="23" y="11" style="clip-path:url(#clipPath22); stroke:none;" xml:space="preserve">Inventory</text>
    </g>
    <g transform="translate(202,72)" style="font-size:11; fill:rgb(122,207,245); text-rendering:geometricPrecision; font-family:sans-serif; stroke:rgb(122,207,245); font-weight:bold;">
      <rect x="0" y="0" width="80" style="clip-path:url(#clipPath18); stroke:none;" height="40" />
    </g>
    <g transform="translate(202,72)" style="stroke-linecap:butt; font-size:11; text-rendering:geometricPrecision; stroke-linejoin:round; font-family:sans-serif; font-weight:bold; stroke-miterlimit:0;">
      <rect x="0" y="0" width="80" style="clip-path:url(#clipPath18); fill:none;" height="40" />
      <line x1="0" x2="80" y1="14" style="clip-path:url(#clipPath18); fill:none;" y2="14" />
    </g>
    <g style="text-rendering:geometricPrecision; font-size:11; font-family:sans-serif;" transform="translate(202,86)">
      <text x="2" y="13" style="clip-path:url(#clipPath19); stroke:none;" xml:space="preserve">+name</text>
    </g>
    <g transform="translate(202,72)" style="text-rendering:geometricPrecision; font-size:11; font-weight:bold; font-family:sans-serif;">
      <text x="13" y="11" style="clip-path:url(#clipPath17); stroke:none;" xml:space="preserve">Inventory</text>
    </g>
    <g transform="translate(62,242)" style="font-size:11; stroke-linecap:butt; text-rendering:geometricPrecision; font-family:sans-serif; stroke-linejoin:round;">
      <line x1="50" x2="139" y1="50" style="clip-path:url(#clipPath23); fill:none;" y2="50" />
      <circle style="fill:none; clip-path:url(#clipPath23);" r="6" cx="56" cy="50" />
      <line x1="56" x2="56" y1="45" style="clip-path:url(#clipPath23); fill:none;" y2="55" />
    </g>
    <g transform="translate(42,102)" style="font-size:11; stroke-linecap:butt; text-rendering:geometricPrecision; font-family:sans-serif; stroke-linejoin:round;">
      <line x1="50" x2="159" y1="50" style="clip-path:url(#clipPath24); fill:none;" y2="50" />
      <circle style="fill:none; clip-path:url(#clipPath24);" r="6" cx="56" cy="50" />
      <line x1="56" x2="56" y1="45" style="clip-path:url(#clipPath24); fill:none;" y2="55" />
    </g>
    <g transform="translate(132,482)" style="font-size:11; stroke-linecap:butt; text-rendering:geometricPrecision; font-family:sans-serif; stroke-linejoin:round;">
      <line x1="50" x2="69" y1="50" style="clip-path:url(#clipPath25); fill:none;" y2="50" />
      <circle style="fill:none; clip-path:url(#clipPath25);" r="6" cx="56" cy="50" />
      <line x1="56" x2="56" y1="45" style="clip-path:url(#clipPath25); fill:none;" y2="55" />
    </g>
    <g transform="translate(72,42)" style="font-size:11; stroke-linecap:butt; text-rendering:geometricPrecision; font-family:sans-serif; stroke-linejoin:round;">
      <line x1="50" x2="129" y1="50" style="clip-path:url(#clipPath26); fill:none;" y2="50" />
      <circle style="fill:none; clip-path:url(#clipPath26);" r="6" cx="56" cy="50" />
      <line x1="56" x2="56" y1="45" style="clip-path:url(#clipPath26); fill:none;" y2="55" />
    </g>
  </g>
</svg>
