<?xml version="1.0" encoding="UTF-8"?>

<!DOCTYPE svg PUBLIC '-//W3C//DTD SVG 1.0//EN' 'http://www.w3.org/TR/2001/REC-SVG-20010904/DTD/svg10.dtd'>
<svg style="fill-opacity:1; color-rendering:auto; color-interpolation:auto; text-rendering:auto; stroke:black; stroke-linecap:square; stroke-miterlimit:10; shape-rendering:auto; stroke-opacity:1; fill:black; stroke-dasharray:none; font-weight:normal; stroke-width:1; font-family:&apos;Dialog&apos;; font-style:normal; stroke-linejoin:miter; font-size:12; stroke-dashoffset:0; image-rendering:auto;" xmlns="http://www.w3.org/2000/svg" width="1246" xmlns:xlink="http://www.w3.org/1999/xlink" height="826">
  <!--Generated by the Batik Graphics2D SVG Generator-->
  <defs id="genericDefs" />
  <g>
    <defs id="defs1">
      <clipPath clipPathUnits="userSpaceOnUse" id="clipPath1">
        <path d="M-3 -3 L107 -3 L107 77 L-3 77 L-3 -3 Z" />
      </clipPath>
      <clipPath clipPathUnits="userSpaceOnUse" id="clipPath2">
        <path d="M0 0 L0 63 L100 63 L100 0 Z" />
      </clipPath>
      <clipPath clipPathUnits="userSpaceOnUse" id="clipPath3">
        <path d="M0 0 L0 14 L100 14 L100 0 Z" />
      </clipPath>
      <clipPath clipPathUnits="userSpaceOnUse" id="clipPath4">
        <path d="M-3 -3 L107 -3 L107 107 L-3 107 L-3 -3 Z" />
      </clipPath>
      <clipPath clipPathUnits="userSpaceOnUse" id="clipPath5">
        <path d="M0 0 L0 93 L100 93 L100 0 Z" />
      </clipPath>
      <clipPath clipPathUnits="userSpaceOnUse" id="clipPath6">
        <path d="M-3 -3 L107 -3 L107 87 L-3 87 L-3 -3 Z" />
      </clipPath>
      <clipPath clipPathUnits="userSpaceOnUse" id="clipPath7">
        <path d="M0 0 L0 73 L100 73 L100 0 Z" />
      </clipPath>
      <clipPath clipPathUnits="userSpaceOnUse" id="clipPath8">
        <path d="M-3 -3 L97 -3 L97 77 L-3 77 L-3 -3 Z" />
      </clipPath>
      <clipPath clipPathUnits="userSpaceOnUse" id="clipPath9">
        <path d="M0 0 L0 63 L90 63 L90 0 Z" />
      </clipPath>
      <clipPath clipPathUnits="userSpaceOnUse" id="clipPath10">
        <path d="M0 0 L0 14 L90 14 L90 0 Z" />
      </clipPath>
      <clipPath clipPathUnits="userSpaceOnUse" id="clipPath11">
        <path d="M-3 -3 L87 -3 L87 87 L-3 87 L-3 -3 Z" />
      </clipPath>
      <clipPath clipPathUnits="userSpaceOnUse" id="clipPath12">
        <path d="M0 0 L0 73 L80 73 L80 0 Z" />
      </clipPath>
      <clipPath clipPathUnits="userSpaceOnUse" id="clipPath13">
        <path d="M0 0 L0 14 L80 14 L80 0 Z" />
      </clipPath>
      <clipPath clipPathUnits="userSpaceOnUse" id="clipPath14">
        <path d="M-3 -3 L97 -3 L97 57 L-3 57 L-3 -3 Z" />
      </clipPath>
      <clipPath clipPathUnits="userSpaceOnUse" id="clipPath15">
        <path d="M0 0 L0 43 L90 43 L90 0 Z" />
      </clipPath>
      <clipPath clipPathUnits="userSpaceOnUse" id="clipPath16">
        <path d="M-3 -3 L87 -3 L87 47 L-3 47 L-3 -3 Z" />
      </clipPath>
      <clipPath clipPathUnits="userSpaceOnUse" id="clipPath17">
        <path d="M0 0 L0 33 L80 33 L80 0 Z" />
      </clipPath>
      <clipPath clipPathUnits="userSpaceOnUse" id="clipPath18">
        <path d="M-3 -3 L87 -3 L87 77 L-3 77 L-3 -3 Z" />
      </clipPath>
      <clipPath clipPathUnits="userSpaceOnUse" id="clipPath19">
        <path d="M0 0 L0 63 L80 63 L80 0 Z" />
      </clipPath>
      <clipPath clipPathUnits="userSpaceOnUse" id="clipPath20">
        <path d="M-3 -3 L127 -3 L127 47 L-3 47 L-3 -3 Z" />
      </clipPath>
      <clipPath clipPathUnits="userSpaceOnUse" id="clipPath21">
        <path d="M0 0 L0 33 L120 33 L120 0 Z" />
      </clipPath>
      <clipPath clipPathUnits="userSpaceOnUse" id="clipPath22">
        <path d="M0 0 L0 14 L120 14 L120 0 Z" />
      </clipPath>
      <clipPath clipPathUnits="userSpaceOnUse" id="clipPath23">
        <path d="M-3 -3 L117 -3 L117 117 L-3 117 L-3 -3 Z" />
      </clipPath>
      <clipPath clipPathUnits="userSpaceOnUse" id="clipPath24">
        <path d="M0 0 L0 103 L110 103 L110 0 Z" />
      </clipPath>
      <clipPath clipPathUnits="userSpaceOnUse" id="clipPath25">
        <path d="M0 0 L0 14 L110 14 L110 0 Z" />
      </clipPath>
      <clipPath clipPathUnits="userSpaceOnUse" id="clipPath26">
        <path d="M-3 -3 L97 -3 L97 47 L-3 47 L-3 -3 Z" />
      </clipPath>
      <clipPath clipPathUnits="userSpaceOnUse" id="clipPath27">
        <path d="M0 0 L0 33 L90 33 L90 0 Z" />
      </clipPath>
      <clipPath clipPathUnits="userSpaceOnUse" id="clipPath28">
        <path d="M-3 -3 L107 -3 L107 57 L-3 57 L-3 -3 Z" />
      </clipPath>
      <clipPath clipPathUnits="userSpaceOnUse" id="clipPath29">
        <path d="M0 0 L0 43 L100 43 L100 0 Z" />
      </clipPath>
      <clipPath clipPathUnits="userSpaceOnUse" id="clipPath30">
        <path d="M-3 -3 L147 -3 L147 77 L-3 77 L-3 -3 Z" />
      </clipPath>
      <clipPath clipPathUnits="userSpaceOnUse" id="clipPath31">
        <path d="M0 0 L0 63 L140 63 L140 0 Z" />
      </clipPath>
      <clipPath clipPathUnits="userSpaceOnUse" id="clipPath32">
        <path d="M0 0 L0 14 L140 14 L140 0 Z" />
      </clipPath>
      <clipPath clipPathUnits="userSpaceOnUse" id="clipPath33">
        <path d="M-3 -3 L87 -3 L87 147 L-3 147 L-3 -3 Z" />
      </clipPath>
      <clipPath clipPathUnits="userSpaceOnUse" id="clipPath34">
        <path d="M0 0 L0 133 L80 133 L80 0 Z" />
      </clipPath>
      <clipPath clipPathUnits="userSpaceOnUse" id="clipPath35">
        <path d="M0 0 L214 0 L214 253 L0 253 L0 0 Z" />
      </clipPath>
      <clipPath clipPathUnits="userSpaceOnUse" id="clipPath36">
        <path d="M0 0 L104 0 L104 463 L0 463 L0 0 Z" />
      </clipPath>
      <clipPath clipPathUnits="userSpaceOnUse" id="clipPath37">
        <path d="M0 0 L104 0 L104 263 L0 263 L0 0 Z" />
      </clipPath>
      <clipPath clipPathUnits="userSpaceOnUse" id="clipPath38">
        <path d="M0 0 L204 0 L204 263 L0 263 L0 0 Z" />
      </clipPath>
      <clipPath clipPathUnits="userSpaceOnUse" id="clipPath39">
        <path d="M0 0 L114 0 L114 273 L0 273 L0 0 Z" />
      </clipPath>
      <clipPath clipPathUnits="userSpaceOnUse" id="clipPath40">
        <path d="M0 0 L244 0 L244 263 L0 263 L0 0 Z" />
      </clipPath>
      <clipPath clipPathUnits="userSpaceOnUse" id="clipPath41">
        <path d="M0 0 L374 0 L374 264 L0 264 L0 0 Z" />
      </clipPath>
      <clipPath clipPathUnits="userSpaceOnUse" id="clipPath42">
        <path d="M0 0 L324 0 L324 273 L0 273 L0 0 Z" />
      </clipPath>
      <clipPath clipPathUnits="userSpaceOnUse" id="clipPath43">
        <path d="M0 0 L214 0 L214 273 L0 273 L0 0 Z" />
      </clipPath>
      <clipPath clipPathUnits="userSpaceOnUse" id="clipPath44">
        <path d="M0 0 L304 0 L304 263 L0 263 L0 0 Z" />
      </clipPath>
      <clipPath clipPathUnits="userSpaceOnUse" id="clipPath45">
        <path d="M0 0 L404 0 L404 263 L0 263 L0 0 Z" />
      </clipPath>
      <clipPath clipPathUnits="userSpaceOnUse" id="clipPath46">
        <path d="M0 0 L324 0 L324 233 L0 233 L0 0 Z" />
      </clipPath>
      <clipPath clipPathUnits="userSpaceOnUse" id="clipPath47">
        <path d="M0 0 L464 0 L464 263 L0 263 L0 0 Z" />
      </clipPath>
      <clipPath clipPathUnits="userSpaceOnUse" id="clipPath48">
        <path d="M0 0 L263 0 L263 104 L0 104 L0 0 Z" />
      </clipPath>
    </defs>
    <g style="fill:white; text-rendering:geometricPrecision; stroke:white;">
      <rect x="0" y="0" width="1246" style="stroke:none;" height="826" />
    </g>
    <g transform="translate(552,502)" style="font-size:11; fill:rgb(122,207,245); text-rendering:geometricPrecision; font-family:sans-serif; stroke:rgb(122,207,245); font-weight:bold;">
      <rect x="0" y="0" width="100" style="clip-path:url(#clipPath1); stroke:none;" height="70" />
    </g>
    <g transform="translate(552,502)" style="stroke-linecap:butt; font-size:11; text-rendering:geometricPrecision; stroke-linejoin:round; font-family:sans-serif; font-weight:bold; stroke-miterlimit:0;">
      <rect x="0" y="0" width="100" style="clip-path:url(#clipPath1); fill:none;" height="70" />
      <line x1="0" x2="100" y1="14" style="clip-path:url(#clipPath1); fill:none;" y2="14" />
    </g>
    <g style="text-rendering:geometricPrecision; font-size:11; font-family:sans-serif;" transform="translate(552,516)">
      <text x="2" y="13" style="clip-path:url(#clipPath2); stroke:none;" xml:space="preserve">+createDevice()</text>
      <text x="2" y="27" style="clip-path:url(#clipPath2); stroke:none;" xml:space="preserve">+__init__()</text>
      <text x="2" y="41" style="clip-path:url(#clipPath2); stroke:none;" xml:space="preserve">+_write()</text>
    </g>
    <g transform="translate(552,502)" style="text-rendering:geometricPrecision; font-size:11; font-weight:bold; font-family:sans-serif;">
      <text x="27" y="11" style="clip-path:url(#clipPath3); stroke:none;" xml:space="preserve">Console</text>
    </g>
    <g transform="translate(692,242)" style="font-size:11; fill:rgb(122,207,245); text-rendering:geometricPrecision; font-family:sans-serif; stroke:rgb(122,207,245); font-weight:bold;">
      <rect x="0" y="0" width="100" style="clip-path:url(#clipPath4); stroke:none;" height="100" />
    </g>
    <g transform="translate(692,242)" style="stroke-linecap:butt; font-size:11; text-rendering:geometricPrecision; stroke-linejoin:round; font-family:sans-serif; font-weight:bold; stroke-miterlimit:0;">
      <rect x="0" y="0" width="100" style="clip-path:url(#clipPath4); fill:none;" height="100" />
      <line x1="0" x2="100" y1="14" style="clip-path:url(#clipPath4); fill:none;" y2="14" />
    </g>
    <g style="text-rendering:geometricPrecision; font-size:11; font-family:sans-serif;" transform="translate(692,256)">
      <text x="2" y="13" style="clip-path:url(#clipPath5); stroke:none;" xml:space="preserve">+createDevice()</text>
      <text x="2" y="27" style="clip-path:url(#clipPath5); stroke:none;" xml:space="preserve">+__init__()</text>
      <text x="2" y="41" style="clip-path:url(#clipPath5); stroke:none;" xml:space="preserve">+_init()</text>
      <text x="2" y="55" style="clip-path:url(#clipPath5); stroke:none;" xml:space="preserve">+record()</text>
      <text x="2" y="69" style="clip-path:url(#clipPath5); stroke:none;" xml:space="preserve">+_write()</text>
    </g>
    <g transform="translate(692,242)" style="text-rendering:geometricPrecision; font-size:11; font-weight:bold; font-family:sans-serif;">
      <text x="31" y="11" style="clip-path:url(#clipPath3); stroke:none;" xml:space="preserve">Device</text>
    </g>
    <g transform="translate(372,502)" style="font-size:11; fill:rgb(122,207,245); text-rendering:geometricPrecision; font-family:sans-serif; stroke:rgb(122,207,245); font-weight:bold;">
      <rect x="0" y="0" width="100" style="clip-path:url(#clipPath6); stroke:none;" height="80" />
    </g>
    <g transform="translate(372,502)" style="stroke-linecap:butt; font-size:11; text-rendering:geometricPrecision; stroke-linejoin:round; font-family:sans-serif; font-weight:bold; stroke-miterlimit:0;">
      <rect x="0" y="0" width="100" style="clip-path:url(#clipPath6); fill:none;" height="80" />
      <line x1="0" x2="100" y1="14" style="clip-path:url(#clipPath6); fill:none;" y2="14" />
    </g>
    <g style="text-rendering:geometricPrecision; font-size:11; font-family:sans-serif;" transform="translate(372,516)">
      <text x="2" y="13" style="clip-path:url(#clipPath7); stroke:none;" xml:space="preserve">+identify()</text>
      <text x="2" y="27" style="clip-path:url(#clipPath7); stroke:none;" xml:space="preserve">+createDevice()</text>
      <text x="2" y="41" style="clip-path:url(#clipPath7); stroke:none;" xml:space="preserve">+__init__()</text>
      <text x="2" y="55" style="clip-path:url(#clipPath7); stroke:none;" xml:space="preserve">+_write()</text>
    </g>
    <g transform="translate(372,502)" style="text-rendering:geometricPrecision; font-size:11; font-weight:bold; font-family:sans-serif;">
      <text x="40" y="11" style="clip-path:url(#clipPath3); stroke:none;" xml:space="preserve">File</text>
    </g>
    <g transform="translate(812,252)" style="font-size:11; fill:rgb(122,207,245); text-rendering:geometricPrecision; font-family:sans-serif; stroke:rgb(122,207,245); font-weight:bold;">
      <rect x="0" y="0" width="90" style="clip-path:url(#clipPath8); stroke:none;" height="70" />
    </g>
    <g transform="translate(812,252)" style="stroke-linecap:butt; font-size:11; text-rendering:geometricPrecision; stroke-linejoin:round; font-family:sans-serif; font-weight:bold; stroke-miterlimit:0;">
      <rect x="0" y="0" width="90" style="clip-path:url(#clipPath8); fill:none;" height="70" />
      <line x1="0" x2="90" y1="14" style="clip-path:url(#clipPath8); fill:none;" y2="14" />
    </g>
    <g style="text-rendering:geometricPrecision; font-size:11; font-family:sans-serif;" transform="translate(812,266)">
      <text x="2" y="13" style="clip-path:url(#clipPath9); stroke:none;" xml:space="preserve">+__init__()</text>
      <text x="2" y="27" style="clip-path:url(#clipPath9); stroke:none;" xml:space="preserve">+_init()</text>
      <text x="2" y="41" style="clip-path:url(#clipPath9); stroke:none;" xml:space="preserve">+render()</text>
    </g>
    <g transform="translate(812,252)" style="text-rendering:geometricPrecision; font-size:11; font-weight:bold; font-family:sans-serif;">
      <text x="11" y="11" style="clip-path:url(#clipPath10); stroke:none;" xml:space="preserve">NetRenderer</text>
    </g>
    <g transform="translate(922,252)" style="font-size:11; fill:rgb(122,207,245); text-rendering:geometricPrecision; font-family:sans-serif; stroke:rgb(122,207,245); font-weight:bold;">
      <rect x="0" y="0" width="80" style="clip-path:url(#clipPath11); stroke:none;" height="80" />
    </g>
    <g transform="translate(922,252)" style="stroke-linecap:butt; font-size:11; text-rendering:geometricPrecision; stroke-linejoin:round; font-family:sans-serif; font-weight:bold; stroke-miterlimit:0;">
      <rect x="0" y="0" width="80" style="clip-path:url(#clipPath11); fill:none;" height="80" />
      <line x1="0" x2="80" y1="14" style="clip-path:url(#clipPath11); fill:none;" y2="14" />
    </g>
    <g style="text-rendering:geometricPrecision; font-size:11; font-family:sans-serif;" transform="translate(922,266)">
      <text x="2" y="13" style="clip-path:url(#clipPath12); stroke:none;" xml:space="preserve">+__init__()</text>
      <text x="2" y="27" style="clip-path:url(#clipPath12); stroke:none;" xml:space="preserve">+_init()</text>
      <text x="2" y="41" style="clip-path:url(#clipPath12); stroke:none;" xml:space="preserve">+render()</text>
      <text x="2" y="55" style="clip-path:url(#clipPath12); stroke:none;" xml:space="preserve">+__init__()</text>
    </g>
    <g transform="translate(922,252)" style="text-rendering:geometricPrecision; font-size:11; font-weight:bold; font-family:sans-serif;">
      <text x="15" y="11" style="clip-path:url(#clipPath13); stroke:none;" xml:space="preserve">Renderer</text>
    </g>
    <g transform="translate(802,512)" style="font-size:11; fill:rgb(122,207,245); text-rendering:geometricPrecision; font-family:sans-serif; stroke:rgb(122,207,245); font-weight:bold;">
      <rect x="0" y="0" width="90" style="clip-path:url(#clipPath14); stroke:none;" height="50" />
    </g>
    <g transform="translate(802,512)" style="stroke-linecap:butt; font-size:11; text-rendering:geometricPrecision; stroke-linejoin:round; font-family:sans-serif; font-weight:bold; stroke-miterlimit:0;">
      <rect x="0" y="0" width="90" style="clip-path:url(#clipPath14); fill:none;" height="50" />
      <line x1="0" x2="90" y1="14" style="clip-path:url(#clipPath14); fill:none;" y2="14" />
    </g>
    <g style="text-rendering:geometricPrecision; font-size:11; font-family:sans-serif;" transform="translate(802,526)">
      <text x="2" y="13" style="clip-path:url(#clipPath15); stroke:none;" xml:space="preserve">+record()</text>
      <text x="2" y="27" style="clip-path:url(#clipPath15); stroke:none;" xml:space="preserve">+__init__()</text>
    </g>
    <g transform="translate(802,512)" style="text-rendering:geometricPrecision; font-size:11; font-weight:bold; font-family:sans-serif;">
      <text x="14" y="11" style="clip-path:url(#clipPath10); stroke:none;" xml:space="preserve">TCPDevice</text>
    </g>
    <g transform="translate(382,742)" style="font-size:11; fill:rgb(122,207,245); text-rendering:geometricPrecision; font-family:sans-serif; stroke:rgb(122,207,245); font-weight:bold;">
      <rect x="0" y="0" width="80" style="clip-path:url(#clipPath16); stroke:none;" height="40" />
    </g>
    <g transform="translate(382,742)" style="stroke-linecap:butt; font-size:11; text-rendering:geometricPrecision; stroke-linejoin:round; font-family:sans-serif; font-weight:bold; stroke-miterlimit:0;">
      <rect x="0" y="0" width="80" style="clip-path:url(#clipPath16); fill:none;" height="40" />
      <line x1="0" x2="80" y1="14" style="clip-path:url(#clipPath16); fill:none;" y2="14" />
    </g>
    <g style="text-rendering:geometricPrecision; font-size:11; font-family:sans-serif;" transform="translate(382,756)">
      <text x="2" y="13" style="clip-path:url(#clipPath17); stroke:none;" xml:space="preserve">+_write()</text>
    </g>
    <g transform="translate(382,742)" style="text-rendering:geometricPrecision; font-size:11; font-weight:bold; font-family:sans-serif;">
      <text x="17" y="11" style="clip-path:url(#clipPath13); stroke:none;" xml:space="preserve">TextFile</text>
    </g>
    <g transform="translate(912,512)" style="font-size:11; fill:rgb(122,207,245); text-rendering:geometricPrecision; font-family:sans-serif; stroke:rgb(122,207,245); font-weight:bold;">
      <rect x="0" y="0" width="90" style="clip-path:url(#clipPath14); stroke:none;" height="50" />
    </g>
    <g transform="translate(912,512)" style="stroke-linecap:butt; font-size:11; text-rendering:geometricPrecision; stroke-linejoin:round; font-family:sans-serif; font-weight:bold; stroke-miterlimit:0;">
      <rect x="0" y="0" width="90" style="clip-path:url(#clipPath14); fill:none;" height="50" />
      <line x1="0" x2="90" y1="14" style="clip-path:url(#clipPath14); fill:none;" y2="14" />
    </g>
    <g style="text-rendering:geometricPrecision; font-size:11; font-family:sans-serif;" transform="translate(912,526)">
      <text x="2" y="13" style="clip-path:url(#clipPath15); stroke:none;" xml:space="preserve">+record()</text>
      <text x="2" y="27" style="clip-path:url(#clipPath15); stroke:none;" xml:space="preserve">+__init__()</text>
    </g>
    <g transform="translate(912,512)" style="text-rendering:geometricPrecision; font-size:11; font-weight:bold; font-family:sans-serif;">
      <text x="14" y="11" style="clip-path:url(#clipPath10); stroke:none;" xml:space="preserve">UDPDevice</text>
    </g>
    <g transform="translate(1162,252)" style="font-size:11; fill:rgb(122,207,245); text-rendering:geometricPrecision; font-family:sans-serif; stroke:rgb(122,207,245); font-weight:bold;">
      <rect x="0" y="0" width="80" style="clip-path:url(#clipPath18); stroke:none;" height="70" />
    </g>
    <g transform="translate(1162,252)" style="stroke-linecap:butt; font-size:11; text-rendering:geometricPrecision; stroke-linejoin:round; font-family:sans-serif; font-weight:bold; stroke-miterlimit:0;">
      <rect x="0" y="0" width="80" style="clip-path:url(#clipPath18); fill:none;" height="70" />
      <line x1="0" x2="80" y1="14" style="clip-path:url(#clipPath18); fill:none;" y2="14" />
    </g>
    <g style="text-rendering:geometricPrecision; font-size:11; font-family:sans-serif;" transform="translate(1162,266)">
      <text x="2" y="13" style="clip-path:url(#clipPath19); stroke:none;" xml:space="preserve">+header</text>
      <text x="2" y="27" style="clip-path:url(#clipPath19); stroke:none;" xml:space="preserve">+footer</text>
      <text x="2" y="41" style="clip-path:url(#clipPath19); stroke:none;" xml:space="preserve">+format</text>
    </g>
    <g transform="translate(1162,252)" style="text-rendering:geometricPrecision; font-size:11; font-weight:bold; font-family:sans-serif;">
      <text x="13" y="11" style="clip-path:url(#clipPath13); stroke:none;" xml:space="preserve">Inventory</text>
    </g>
    <g transform="translate(132,522)" style="font-size:11; fill:rgb(122,207,245); text-rendering:geometricPrecision; font-family:sans-serif; stroke:rgb(122,207,245); font-weight:bold;">
      <rect x="0" y="0" width="80" style="clip-path:url(#clipPath16); stroke:none;" height="40" />
    </g>
    <g transform="translate(132,522)" style="stroke-linecap:butt; font-size:11; text-rendering:geometricPrecision; stroke-linejoin:round; font-family:sans-serif; font-weight:bold; stroke-miterlimit:0;">
      <rect x="0" y="0" width="80" style="clip-path:url(#clipPath16); fill:none;" height="40" />
      <line x1="0" x2="80" y1="14" style="clip-path:url(#clipPath16); fill:none;" y2="14" />
    </g>
    <g style="text-rendering:geometricPrecision; font-size:11; font-family:sans-serif;" transform="translate(132,536)">
      <text x="2" y="13" style="clip-path:url(#clipPath17); stroke:none;" xml:space="preserve">+name</text>
    </g>
    <g transform="translate(132,522)" style="text-rendering:geometricPrecision; font-size:11; font-weight:bold; font-family:sans-serif;">
      <text x="13" y="11" style="clip-path:url(#clipPath13); stroke:none;" xml:space="preserve">Inventory</text>
    </g>
    <g transform="translate(452,272)" style="font-size:11; fill:rgb(122,207,245); text-rendering:geometricPrecision; font-family:sans-serif; stroke:rgb(122,207,245); font-weight:bold;">
      <rect x="0" y="0" width="80" style="clip-path:url(#clipPath16); stroke:none;" height="40" />
    </g>
    <g transform="translate(452,272)" style="stroke-linecap:butt; font-size:11; text-rendering:geometricPrecision; stroke-linejoin:round; font-family:sans-serif; font-weight:bold; stroke-miterlimit:0;">
      <rect x="0" y="0" width="80" style="clip-path:url(#clipPath16); fill:none;" height="40" />
      <line x1="0" x2="80" y1="14" style="clip-path:url(#clipPath16); fill:none;" y2="14" />
    </g>
    <g style="text-rendering:geometricPrecision; font-size:11; font-family:sans-serif;" transform="translate(452,286)">
      <text x="2" y="13" style="clip-path:url(#clipPath17); stroke:none;" xml:space="preserve">+renderer</text>
    </g>
    <g transform="translate(452,272)" style="text-rendering:geometricPrecision; font-size:11; font-weight:bold; font-family:sans-serif;">
      <text x="13" y="11" style="clip-path:url(#clipPath13); stroke:none;" xml:space="preserve">Inventory</text>
    </g>
    <g transform="translate(2,742)" style="font-size:11; fill:rgb(122,207,245); text-rendering:geometricPrecision; font-family:sans-serif; stroke:rgb(122,207,245); font-weight:bold;">
      <rect x="0" y="0" width="120" style="clip-path:url(#clipPath20); stroke:none;" height="40" />
    </g>
    <g transform="translate(2,742)" style="stroke-linecap:butt; font-size:11; text-rendering:geometricPrecision; stroke-linejoin:round; font-family:sans-serif; font-weight:bold; stroke-miterlimit:0;">
      <rect x="0" y="0" width="120" style="clip-path:url(#clipPath20); fill:none;" height="40" />
      <line x1="0" x2="120" y1="14" style="clip-path:url(#clipPath20); fill:none;" y2="14" />
    </g>
    <g style="text-rendering:geometricPrecision; font-size:11; font-family:sans-serif;" transform="translate(2,756)">
      <text x="2" y="13" style="clip-path:url(#clipPath21); stroke:none;" xml:space="preserve">+identify()</text>
    </g>
    <g transform="translate(2,742)" style="text-rendering:geometricPrecision; font-size:11; font-weight:bold; font-family:sans-serif;">
      <text x="14" y="11" style="clip-path:url(#clipPath22); stroke:none;" xml:space="preserve">CharacterDevice</text>
    </g>
    <g transform="translate(142,712)" style="font-size:11; fill:rgb(122,207,245); text-rendering:geometricPrecision; font-family:sans-serif; stroke:rgb(122,207,245); font-weight:bold;">
      <rect x="0" y="0" width="110" style="clip-path:url(#clipPath23); stroke:none;" height="110" />
    </g>
    <g transform="translate(142,712)" style="stroke-linecap:butt; font-size:11; text-rendering:geometricPrecision; stroke-linejoin:round; font-family:sans-serif; font-weight:bold; stroke-miterlimit:0;">
      <rect x="0" y="0" width="110" style="clip-path:url(#clipPath23); fill:none;" height="110" />
      <line x1="0" x2="110" y1="14" style="clip-path:url(#clipPath23); fill:none;" y2="14" />
    </g>
    <g style="text-rendering:geometricPrecision; font-size:11; font-family:sans-serif;" transform="translate(142,726)">
      <text x="2" y="13" style="clip-path:url(#clipPath24); stroke:none;" xml:space="preserve">+identify()</text>
      <text x="2" y="27" style="clip-path:url(#clipPath24); stroke:none;" xml:space="preserve">+children()</text>
      <text x="2" y="41" style="clip-path:url(#clipPath24); stroke:none;" xml:space="preserve">+files()</text>
      <text x="2" y="55" style="clip-path:url(#clipPath24); stroke:none;" xml:space="preserve">+subdirectories()</text>
      <text x="2" y="69" style="clip-path:url(#clipPath24); stroke:none;" xml:space="preserve">+expand()</text>
      <text x="2" y="83" style="clip-path:url(#clipPath24); stroke:none;" xml:space="preserve">+__init__()</text>
    </g>
    <g transform="translate(142,712)" style="text-rendering:geometricPrecision; font-size:11; font-weight:bold; font-family:sans-serif;">
      <text x="29" y="11" style="clip-path:url(#clipPath25); stroke:none;" xml:space="preserve">Directory</text>
    </g>
    <g transform="translate(682,742)" style="font-size:11; fill:rgb(122,207,245); text-rendering:geometricPrecision; font-family:sans-serif; stroke:rgb(122,207,245); font-weight:bold;">
      <rect x="0" y="0" width="90" style="clip-path:url(#clipPath26); stroke:none;" height="40" />
    </g>
    <g transform="translate(682,742)" style="stroke-linecap:butt; font-size:11; text-rendering:geometricPrecision; stroke-linejoin:round; font-family:sans-serif; font-weight:bold; stroke-miterlimit:0;">
      <rect x="0" y="0" width="90" style="clip-path:url(#clipPath26); fill:none;" height="40" />
      <line x1="0" x2="90" y1="14" style="clip-path:url(#clipPath26); fill:none;" y2="14" />
    </g>
    <g style="text-rendering:geometricPrecision; font-size:11; font-family:sans-serif;" transform="translate(682,756)">
      <text x="2" y="13" style="clip-path:url(#clipPath27); stroke:none;" xml:space="preserve">+identify()</text>
    </g>
    <g transform="translate(682,742)" style="text-rendering:geometricPrecision; font-size:11; font-weight:bold; font-family:sans-serif;">
      <text x="10" y="11" style="clip-path:url(#clipPath10); stroke:none;" xml:space="preserve">BlockDevice</text>
    </g>
    <g transform="translate(482,742)" style="font-size:11; fill:rgb(122,207,245); text-rendering:geometricPrecision; font-family:sans-serif; stroke:rgb(122,207,245); font-weight:bold;">
      <rect x="0" y="0" width="80" style="clip-path:url(#clipPath16); stroke:none;" height="40" />
    </g>
    <g transform="translate(482,742)" style="stroke-linecap:butt; font-size:11; text-rendering:geometricPrecision; stroke-linejoin:round; font-family:sans-serif; font-weight:bold; stroke-miterlimit:0;">
      <rect x="0" y="0" width="80" style="clip-path:url(#clipPath16); fill:none;" height="40" />
      <line x1="0" x2="80" y1="14" style="clip-path:url(#clipPath16); fill:none;" y2="14" />
    </g>
    <g style="text-rendering:geometricPrecision; font-size:11; font-family:sans-serif;" transform="translate(482,756)">
      <text x="2" y="13" style="clip-path:url(#clipPath17); stroke:none;" xml:space="preserve">+identify()</text>
    </g>
    <g transform="translate(482,742)" style="text-rendering:geometricPrecision; font-size:11; font-weight:bold; font-family:sans-serif;">
      <text x="28" y="11" style="clip-path:url(#clipPath13); stroke:none;" xml:space="preserve">Link</text>
    </g>
    <g transform="translate(582,742)" style="font-size:11; fill:rgb(122,207,245); text-rendering:geometricPrecision; font-family:sans-serif; stroke:rgb(122,207,245); font-weight:bold;">
      <rect x="0" y="0" width="80" style="clip-path:url(#clipPath16); stroke:none;" height="40" />
    </g>
    <g transform="translate(582,742)" style="stroke-linecap:butt; font-size:11; text-rendering:geometricPrecision; stroke-linejoin:round; font-family:sans-serif; font-weight:bold; stroke-miterlimit:0;">
      <rect x="0" y="0" width="80" style="clip-path:url(#clipPath16); fill:none;" height="40" />
      <line x1="0" x2="80" y1="14" style="clip-path:url(#clipPath16); fill:none;" y2="14" />
    </g>
    <g style="text-rendering:geometricPrecision; font-size:11; font-family:sans-serif;" transform="translate(582,756)">
      <text x="2" y="13" style="clip-path:url(#clipPath17); stroke:none;" xml:space="preserve">+identify()</text>
    </g>
    <g transform="translate(582,742)" style="text-rendering:geometricPrecision; font-size:11; font-weight:bold; font-family:sans-serif;">
      <text x="22" y="11" style="clip-path:url(#clipPath13); stroke:none;" xml:space="preserve">Socket</text>
    </g>
    <g transform="translate(272,742)" style="font-size:11; fill:rgb(122,207,245); text-rendering:geometricPrecision; font-family:sans-serif; stroke:rgb(122,207,245); font-weight:bold;">
      <rect x="0" y="0" width="90" style="clip-path:url(#clipPath26); stroke:none;" height="40" />
    </g>
    <g transform="translate(272,742)" style="stroke-linecap:butt; font-size:11; text-rendering:geometricPrecision; stroke-linejoin:round; font-family:sans-serif; font-weight:bold; stroke-miterlimit:0;">
      <rect x="0" y="0" width="90" style="clip-path:url(#clipPath26); fill:none;" height="40" />
      <line x1="0" x2="90" y1="14" style="clip-path:url(#clipPath26); fill:none;" y2="14" />
    </g>
    <g style="text-rendering:geometricPrecision; font-size:11; font-family:sans-serif;" transform="translate(272,756)">
      <text x="2" y="13" style="clip-path:url(#clipPath27); stroke:none;" xml:space="preserve">+identify()</text>
    </g>
    <g transform="translate(272,742)" style="text-rendering:geometricPrecision; font-size:11; font-weight:bold; font-family:sans-serif;">
      <text x="14" y="11" style="clip-path:url(#clipPath10); stroke:none;" xml:space="preserve">NamedPipe</text>
    </g>
    <g transform="translate(682,512)" style="font-size:11; fill:rgb(122,207,245); text-rendering:geometricPrecision; font-family:sans-serif; stroke:rgb(122,207,245); font-weight:bold;">
      <rect x="0" y="0" width="100" style="clip-path:url(#clipPath28); stroke:none;" height="50" />
    </g>
    <g transform="translate(682,512)" style="stroke-linecap:butt; font-size:11; text-rendering:geometricPrecision; stroke-linejoin:round; font-family:sans-serif; font-weight:bold; stroke-miterlimit:0;">
      <rect x="0" y="0" width="100" style="clip-path:url(#clipPath28); fill:none;" height="50" />
      <line x1="0" x2="100" y1="14" style="clip-path:url(#clipPath28); fill:none;" y2="14" />
    </g>
    <g style="text-rendering:geometricPrecision; font-size:11; font-family:sans-serif;" transform="translate(682,526)">
      <text x="2" y="13" style="clip-path:url(#clipPath29); stroke:none;" xml:space="preserve">+createDevice()</text>
      <text x="2" y="27" style="clip-path:url(#clipPath29); stroke:none;" xml:space="preserve">+__init__()</text>
    </g>
    <g transform="translate(682,512)" style="text-rendering:geometricPrecision; font-size:11; font-weight:bold; font-family:sans-serif;">
      <text x="29" y="11" style="clip-path:url(#clipPath3); stroke:none;" xml:space="preserve">Remote</text>
    </g>
    <g transform="translate(782,22)" style="font-size:11; fill:rgb(122,207,245); text-rendering:geometricPrecision; font-family:sans-serif; stroke:rgb(122,207,245); font-weight:bold;">
      <rect x="0" y="0" width="140" style="clip-path:url(#clipPath30); stroke:none;" height="70" />
    </g>
    <g transform="translate(782,22)" style="stroke-linecap:butt; font-size:11; text-rendering:geometricPrecision; stroke-linejoin:round; font-family:sans-serif; font-weight:bold; stroke-miterlimit:0;">
      <rect x="0" y="0" width="140" style="clip-path:url(#clipPath30); fill:none;" height="70" />
      <line x1="0" x2="140" y1="14" style="clip-path:url(#clipPath30); fill:none;" y2="14" />
    </g>
    <g style="text-rendering:geometricPrecision; font-size:11; font-family:sans-serif;" transform="translate(782,36)">
      <text x="2" y="13" style="clip-path:url(#clipPath31); stroke:none;" xml:space="preserve">+updateConfiguration()</text>
      <text x="2" y="27" style="clip-path:url(#clipPath31); stroke:none;" xml:space="preserve">+__init__()</text>
      <text x="2" y="41" style="clip-path:url(#clipPath31); stroke:none;" xml:space="preserve">+_init()</text>
    </g>
    <g transform="translate(782,22)" style="text-rendering:geometricPrecision; font-size:11; font-weight:bold; font-family:sans-serif;">
      <text x="38" y="11" style="clip-path:url(#clipPath32); stroke:none;" xml:space="preserve">Component</text>
    </g>
    <g transform="translate(362,2)" style="font-size:11; fill:rgb(122,207,245); text-rendering:geometricPrecision; font-family:sans-serif; stroke:rgb(122,207,245); font-weight:bold;">
      <rect x="0" y="0" width="80" style="clip-path:url(#clipPath33); stroke:none;" height="140" />
    </g>
    <g transform="translate(362,2)" style="stroke-linecap:butt; font-size:11; text-rendering:geometricPrecision; stroke-linejoin:round; font-family:sans-serif; font-weight:bold; stroke-miterlimit:0;">
      <rect x="0" y="0" width="80" style="clip-path:url(#clipPath33); fill:none;" height="140" />
      <line x1="0" x2="80" y1="14" style="clip-path:url(#clipPath33); fill:none;" y2="14" />
    </g>
    <g style="text-rendering:geometricPrecision; font-size:11; font-family:sans-serif;" transform="translate(362,16)">
      <text x="2" y="13" style="clip-path:url(#clipPath34); stroke:none;" xml:space="preserve">+path</text>
      <line x1="0" x2="80" y1="18" style="stroke-linecap:butt; clip-path:url(#clipPath34); fill:none; stroke-linejoin:bevel; stroke-miterlimit:0;" y2="18" />
      <text x="2" y="31" style="clip-path:url(#clipPath34); stroke:none;" xml:space="preserve">+identify()</text>
      <text x="2" y="45" style="clip-path:url(#clipPath34); stroke:none;" xml:space="preserve">+__init__()</text>
      <text x="2" y="59" style="clip-path:url(#clipPath34); stroke:none;" xml:space="preserve">+_getPath()</text>
      <text x="2" y="73" style="clip-path:url(#clipPath34); stroke:none;" xml:space="preserve">+_buildPath()</text>
      <text x="2" y="87" style="clip-path:url(#clipPath34); stroke:none;" xml:space="preserve">+attribute()</text>
      <text x="2" y="101" style="clip-path:url(#clipPath34); stroke:none;" xml:space="preserve">+line()</text>
      <text x="2" y="115" style="clip-path:url(#clipPath34); stroke:none;" xml:space="preserve">+__init__()</text>
    </g>
    <g transform="translate(362,2)" style="text-rendering:geometricPrecision; font-size:11; font-weight:bold; font-family:sans-serif;">
      <text x="25" y="11" style="clip-path:url(#clipPath13); stroke:none;" xml:space="preserve">Entry</text>
    </g>
    <g transform="translate(692,42)" style="font-size:11; stroke-linecap:butt; text-rendering:geometricPrecision; font-family:sans-serif; stroke-linejoin:round;">
      <line x1="160" x2="160" y1="50" style="clip-path:url(#clipPath35); fill:none;" y2="120" />
      <line x1="160" x2="50" y1="120" style="clip-path:url(#clipPath35); fill:none;" y2="120" />
      <line x1="50" x2="50" y1="120" style="clip-path:url(#clipPath35); fill:none;" y2="199" />
      <polygon style="fill:rgb(122,207,245); clip-path:url(#clipPath35); stroke:none;" points=" 160 50 154 62 166 62" />
      <polygon style="fill:none; clip-path:url(#clipPath35);" points=" 160 50 154 62 166 62" />
    </g>
    <g transform="translate(352,92)" style="font-size:11; stroke-linecap:butt; text-rendering:geometricPrecision; font-family:sans-serif; stroke-linejoin:round;">
      <line x1="50" x2="50" y1="50" style="clip-path:url(#clipPath36); fill:none;" y2="409" />
      <polygon style="fill:rgb(122,207,245); clip-path:url(#clipPath36); stroke:none;" points=" 50 50 44 62 56 62" />
      <polygon style="fill:none; clip-path:url(#clipPath36);" points=" 50 50 44 62 56 62" />
    </g>
    <g transform="translate(802,42)" style="font-size:11; stroke-linecap:butt; text-rendering:geometricPrecision; font-family:sans-serif; stroke-linejoin:round;">
      <line x1="50" x2="50" y1="50" style="clip-path:url(#clipPath37); fill:none;" y2="209" />
      <polygon style="fill:rgb(122,207,245); clip-path:url(#clipPath37); stroke:none;" points=" 50 50 44 62 56 62" />
      <polygon style="fill:none; clip-path:url(#clipPath37);" points=" 50 50 44 62 56 62" />
    </g>
    <g transform="translate(802,42)" style="font-size:11; stroke-linecap:butt; text-rendering:geometricPrecision; font-family:sans-serif; stroke-linejoin:round;">
      <line x1="50" x2="50" y1="50" style="clip-path:url(#clipPath38); fill:none;" y2="120" />
      <line x1="50" x2="150" y1="120" style="clip-path:url(#clipPath38); fill:none;" y2="120" />
      <line x1="150" x2="150" y1="120" style="clip-path:url(#clipPath38); fill:none;" y2="209" />
      <polygon style="fill:rgb(122,207,245); clip-path:url(#clipPath38); stroke:none;" points=" 50 50 44 62 56 62" />
      <polygon style="fill:none; clip-path:url(#clipPath38);" points=" 50 50 44 62 56 62" />
    </g>
    <g transform="translate(682,292)" style="font-size:11; stroke-linecap:butt; text-rendering:geometricPrecision; font-family:sans-serif; stroke-linejoin:round;">
      <line x1="60" x2="60" y1="50" style="clip-path:url(#clipPath39); fill:none;" y2="100" />
      <line x1="60" x2="50" y1="100" style="clip-path:url(#clipPath39); fill:none;" y2="100" />
      <line x1="50" x2="50" y1="100" style="clip-path:url(#clipPath39); fill:none;" y2="219" />
      <polygon style="fill:rgb(122,207,245); clip-path:url(#clipPath39); stroke:none;" points=" 60 50 54 62 66 62" />
      <polygon style="fill:none; clip-path:url(#clipPath39);" points=" 60 50 54 62 66 62" />
    </g>
    <g transform="translate(552,292)" style="font-size:11; stroke-linecap:butt; text-rendering:geometricPrecision; font-family:sans-serif; stroke-linejoin:round;">
      <line x1="190" x2="190" y1="50" style="clip-path:url(#clipPath40); fill:none;" y2="100" />
      <line x1="190" x2="50" y1="100" style="clip-path:url(#clipPath40); fill:none;" y2="100" />
      <line x1="50" x2="50" y1="100" style="clip-path:url(#clipPath40); fill:none;" y2="209" />
      <polygon style="fill:rgb(122,207,245); clip-path:url(#clipPath40); stroke:none;" points=" 190 50 184 62 196 62" />
      <polygon style="fill:none; clip-path:url(#clipPath40);" points=" 190 50 184 62 196 62" />
    </g>
    <g transform="translate(422,292)" style="font-size:11; stroke-linecap:butt; text-rendering:geometricPrecision; font-family:sans-serif; stroke-linejoin:round;">
      <line x1="320" x2="320" y1="50" style="clip-path:url(#clipPath41); fill:none;" y2="100" />
      <line x1="320" x2="60" y1="100" style="clip-path:url(#clipPath41); fill:none;" y2="100" />
      <line x1="60" x2="60" y1="100" style="clip-path:url(#clipPath41); fill:none;" y2="150" />
      <line x1="60" x2="50" y1="150" style="clip-path:url(#clipPath41); fill:none;" y2="210" />
      <polygon style="fill:rgb(122,207,245); clip-path:url(#clipPath41); stroke:none;" points=" 320 50 314 62 326 62" />
      <polygon style="fill:none; clip-path:url(#clipPath41);" points=" 320 50 314 62 326 62" />
    </g>
    <g transform="translate(692,292)" style="font-size:11; stroke-linecap:butt; text-rendering:geometricPrecision; font-family:sans-serif; stroke-linejoin:round;">
      <line x1="50" x2="50" y1="50" style="clip-path:url(#clipPath42); fill:none;" y2="100" />
      <line x1="50" x2="270" y1="100" style="clip-path:url(#clipPath42); fill:none;" y2="100" />
      <line x1="270" x2="270" y1="100" style="clip-path:url(#clipPath42); fill:none;" y2="219" />
      <polygon style="fill:rgb(122,207,245); clip-path:url(#clipPath42); stroke:none;" points=" 50 50 44 62 56 62" />
      <polygon style="fill:none; clip-path:url(#clipPath42);" points=" 50 50 44 62 56 62" />
    </g>
    <g transform="translate(692,292)" style="font-size:11; stroke-linecap:butt; text-rendering:geometricPrecision; font-family:sans-serif; stroke-linejoin:round;">
      <line x1="50" x2="50" y1="50" style="clip-path:url(#clipPath43); fill:none;" y2="100" />
      <line x1="50" x2="160" y1="100" style="clip-path:url(#clipPath43); fill:none;" y2="100" />
      <line x1="160" x2="160" y1="100" style="clip-path:url(#clipPath43); fill:none;" y2="219" />
      <polygon style="fill:rgb(122,207,245); clip-path:url(#clipPath43); stroke:none;" points=" 50 50 44 62 56 62" />
      <polygon style="fill:none; clip-path:url(#clipPath43);" points=" 50 50 44 62 56 62" />
    </g>
    <g transform="translate(272,532)" style="font-size:11; stroke-linecap:butt; text-rendering:geometricPrecision; font-family:sans-serif; stroke-linejoin:round;">
      <line x1="150" x2="150" y1="50" style="clip-path:url(#clipPath38); fill:none;" y2="100" />
      <line x1="150" x2="50" y1="100" style="clip-path:url(#clipPath38); fill:none;" y2="100" />
      <line x1="50" x2="50" y1="100" style="clip-path:url(#clipPath38); fill:none;" y2="209" />
      <polygon style="fill:rgb(122,207,245); clip-path:url(#clipPath38); stroke:none;" points=" 150 50 144 62 156 62" />
      <polygon style="fill:none; clip-path:url(#clipPath38);" points=" 150 50 144 62 156 62" />
    </g>
    <g transform="translate(372,532)" style="font-size:11; stroke-linecap:butt; text-rendering:geometricPrecision; font-family:sans-serif; stroke-linejoin:round;">
      <line x1="50" x2="50" y1="50" style="clip-path:url(#clipPath44); fill:none;" y2="100" />
      <line x1="50" x2="250" y1="100" style="clip-path:url(#clipPath44); fill:none;" y2="100" />
      <line x1="250" x2="250" y1="100" style="clip-path:url(#clipPath44); fill:none;" y2="209" />
      <polygon style="fill:rgb(122,207,245); clip-path:url(#clipPath44); stroke:none;" points=" 50 50 44 62 56 62" />
      <polygon style="fill:none; clip-path:url(#clipPath44);" points=" 50 50 44 62 56 62" />
    </g>
    <g transform="translate(372,532)" style="font-size:11; stroke-linecap:butt; text-rendering:geometricPrecision; font-family:sans-serif; stroke-linejoin:round;">
      <line x1="50" x2="50" y1="50" style="clip-path:url(#clipPath38); fill:none;" y2="100" />
      <line x1="50" x2="150" y1="100" style="clip-path:url(#clipPath38); fill:none;" y2="100" />
      <line x1="150" x2="150" y1="100" style="clip-path:url(#clipPath38); fill:none;" y2="209" />
      <polygon style="fill:rgb(122,207,245); clip-path:url(#clipPath38); stroke:none;" points=" 50 50 44 62 56 62" />
      <polygon style="fill:none; clip-path:url(#clipPath38);" points=" 50 50 44 62 56 62" />
    </g>
    <g transform="translate(372,532)" style="font-size:11; stroke-linecap:butt; text-rendering:geometricPrecision; font-family:sans-serif; stroke-linejoin:round;">
      <line x1="50" x2="50" y1="50" style="clip-path:url(#clipPath45); fill:none;" y2="100" />
      <line x1="50" x2="350" y1="100" style="clip-path:url(#clipPath45); fill:none;" y2="100" />
      <line x1="350" x2="350" y1="100" style="clip-path:url(#clipPath45); fill:none;" y2="209" />
      <polygon style="fill:rgb(122,207,245); clip-path:url(#clipPath45); stroke:none;" points=" 50 50 44 62 56 62" />
      <polygon style="fill:none; clip-path:url(#clipPath45);" points=" 50 50 44 62 56 62" />
    </g>
    <g transform="translate(152,532)" style="font-size:11; stroke-linecap:butt; text-rendering:geometricPrecision; font-family:sans-serif; stroke-linejoin:round;">
      <line x1="270" x2="270" y1="50" style="clip-path:url(#clipPath46); fill:none;" y2="100" />
      <line x1="270" x2="50" y1="100" style="clip-path:url(#clipPath46); fill:none;" y2="100" />
      <line x1="50" x2="50" y1="100" style="clip-path:url(#clipPath46); fill:none;" y2="179" />
      <polygon style="fill:rgb(122,207,245); clip-path:url(#clipPath46); stroke:none;" points=" 270 50 264 62 276 62" />
      <polygon style="fill:none; clip-path:url(#clipPath46);" points=" 270 50 264 62 276 62" />
    </g>
    <g transform="translate(12,532)" style="font-size:11; stroke-linecap:butt; text-rendering:geometricPrecision; font-family:sans-serif; stroke-linejoin:round;">
      <line x1="410" x2="410" y1="50" style="clip-path:url(#clipPath47); fill:none;" y2="100" />
      <line x1="410" x2="50" y1="100" style="clip-path:url(#clipPath47); fill:none;" y2="100" />
      <line x1="50" x2="50" y1="100" style="clip-path:url(#clipPath47); fill:none;" y2="209" />
      <polygon style="fill:rgb(122,207,245); clip-path:url(#clipPath47); stroke:none;" points=" 410 50 404 62 416 62" />
      <polygon style="fill:none; clip-path:url(#clipPath47);" points=" 410 50 404 62 416 62" />
    </g>
    <g transform="translate(372,532)" style="font-size:11; stroke-linecap:butt; text-rendering:geometricPrecision; font-family:sans-serif; stroke-linejoin:round;">
      <line x1="50" x2="50" y1="50" style="clip-path:url(#clipPath37); fill:none;" y2="209" />
      <polygon style="fill:rgb(122,207,245); clip-path:url(#clipPath37); stroke:none;" points=" 50 50 44 62 56 62" />
      <polygon style="fill:none; clip-path:url(#clipPath37);" points=" 50 50 44 62 56 62" />
    </g>
    <g transform="translate(952,242)" style="font-size:11; stroke-linecap:butt; text-rendering:geometricPrecision; font-family:sans-serif; stroke-linejoin:round;">
      <line x1="50" x2="209" y1="50" style="clip-path:url(#clipPath48); fill:none;" y2="50" />
      <circle style="fill:none; clip-path:url(#clipPath48);" r="6" cx="56" cy="50" />
      <line x1="56" x2="56" y1="45" style="clip-path:url(#clipPath48); fill:none;" y2="55" />
    </g>
    <g transform="translate(162,492)" style="font-size:11; stroke-linecap:butt; text-rendering:geometricPrecision; font-family:sans-serif; stroke-linejoin:round;">
      <line x1="209" x2="50" y1="50" style="clip-path:url(#clipPath48); fill:none;" y2="50" />
      <circle style="fill:none; clip-path:url(#clipPath48);" r="6" cx="203" cy="50" />
      <line x1="203" x2="203" y1="45" style="clip-path:url(#clipPath48); fill:none;" y2="55" />
    </g>
    <g transform="translate(482,242)" style="font-size:11; stroke-linecap:butt; text-rendering:geometricPrecision; font-family:sans-serif; stroke-linejoin:round;">
      <line x1="209" x2="50" y1="50" style="clip-path:url(#clipPath48); fill:none;" y2="50" />
      <circle style="fill:none; clip-path:url(#clipPath48);" r="6" cx="203" cy="50" />
      <line x1="203" x2="203" y1="45" style="clip-path:url(#clipPath48); fill:none;" y2="55" />
    </g>
  </g>
</svg>
