<?xml version="1.0" encoding="UTF-8"?>

<!DOCTYPE svg PUBLIC '-//W3C//DTD SVG 1.0//EN' 'http://www.w3.org/TR/2001/REC-SVG-20010904/DTD/svg10.dtd'>
<svg style="fill-opacity:1; color-rendering:auto; color-interpolation:auto; text-rendering:auto; stroke:black; stroke-linecap:square; stroke-miterlimit:10; shape-rendering:auto; stroke-opacity:1; fill:black; stroke-dasharray:none; font-weight:normal; stroke-width:1; font-family:&apos;Dialog&apos;; font-style:normal; stroke-linejoin:miter; font-size:12; stroke-dashoffset:0; image-rendering:auto;" xmlns="http://www.w3.org/2000/svg" width="596" xmlns:xlink="http://www.w3.org/1999/xlink" height="776">
  <!--Generated by the Batik Graphics2D SVG Generator-->
  <defs id="genericDefs" />
  <g>
    <defs id="defs1">
      <clipPath clipPathUnits="userSpaceOnUse" id="clipPath1">
        <path d="M-3 -3 L97 -3 L97 57 L-3 57 L-3 -3 Z" />
      </clipPath>
      <clipPath clipPathUnits="userSpaceOnUse" id="clipPath2">
        <path d="M0 0 L0 43 L90 43 L90 0 Z" />
      </clipPath>
      <clipPath clipPathUnits="userSpaceOnUse" id="clipPath3">
        <path d="M0 0 L0 14 L90 14 L90 0 Z" />
      </clipPath>
      <clipPath clipPathUnits="userSpaceOnUse" id="clipPath4">
        <path d="M-3 -3 L87 -3 L87 167 L-3 167 L-3 -3 Z" />
      </clipPath>
      <clipPath clipPathUnits="userSpaceOnUse" id="clipPath5">
        <path d="M0 0 L0 153 L80 153 L80 0 Z" />
      </clipPath>
      <clipPath clipPathUnits="userSpaceOnUse" id="clipPath6">
        <path d="M0 0 L0 14 L80 14 L80 0 Z" />
      </clipPath>
      <clipPath clipPathUnits="userSpaceOnUse" id="clipPath7">
        <path d="M-3 -3 L87 -3 L87 147 L-3 147 L-3 -3 Z" />
      </clipPath>
      <clipPath clipPathUnits="userSpaceOnUse" id="clipPath8">
        <path d="M0 0 L0 133 L80 133 L80 0 Z" />
      </clipPath>
      <clipPath clipPathUnits="userSpaceOnUse" id="clipPath9">
        <path d="M-3 -3 L107 -3 L107 117 L-3 117 L-3 -3 Z" />
      </clipPath>
      <clipPath clipPathUnits="userSpaceOnUse" id="clipPath10">
        <path d="M0 0 L0 103 L100 103 L100 0 Z" />
      </clipPath>
      <clipPath clipPathUnits="userSpaceOnUse" id="clipPath11">
        <path d="M0 0 L0 14 L100 14 L100 0 Z" />
      </clipPath>
      <clipPath clipPathUnits="userSpaceOnUse" id="clipPath12">
        <path d="M-3 -3 L87 -3 L87 117 L-3 117 L-3 -3 Z" />
      </clipPath>
      <clipPath clipPathUnits="userSpaceOnUse" id="clipPath13">
        <path d="M0 0 L0 103 L80 103 L80 0 Z" />
      </clipPath>
      <clipPath clipPathUnits="userSpaceOnUse" id="clipPath14">
        <path d="M-3 -3 L87 -3 L87 57 L-3 57 L-3 -3 Z" />
      </clipPath>
      <clipPath clipPathUnits="userSpaceOnUse" id="clipPath15">
        <path d="M0 0 L0 43 L80 43 L80 0 Z" />
      </clipPath>
      <clipPath clipPathUnits="userSpaceOnUse" id="clipPath16">
        <path d="M-3 -3 L107 -3 L107 87 L-3 87 L-3 -3 Z" />
      </clipPath>
      <clipPath clipPathUnits="userSpaceOnUse" id="clipPath17">
        <path d="M0 0 L0 73 L100 73 L100 0 Z" />
      </clipPath>
      <clipPath clipPathUnits="userSpaceOnUse" id="clipPath18">
        <path d="M0 0 L104 0 L104 163 L0 163 L0 0 Z" />
      </clipPath>
      <clipPath clipPathUnits="userSpaceOnUse" id="clipPath19">
        <path d="M0 0 L324 0 L324 233 L0 233 L0 0 Z" />
      </clipPath>
      <clipPath clipPathUnits="userSpaceOnUse" id="clipPath20">
        <path d="M0 0 L214 0 L214 233 L0 233 L0 0 Z" />
      </clipPath>
      <clipPath clipPathUnits="userSpaceOnUse" id="clipPath21">
        <path d="M0 0 L104 0 L104 233 L0 233 L0 0 Z" />
      </clipPath>
      <clipPath clipPathUnits="userSpaceOnUse" id="clipPath22">
        <path d="M0 0 L263 0 L263 104 L0 104 L0 0 Z" />
      </clipPath>
    </defs>
    <g style="fill:white; text-rendering:geometricPrecision; stroke:white;">
      <rect x="0" y="0" width="596" style="stroke:none;" height="776" />
    </g>
    <g transform="translate(442,242)" style="font-size:11; fill:rgb(122,207,245); text-rendering:geometricPrecision; font-family:sans-serif; stroke:rgb(122,207,245); font-weight:bold;">
      <rect x="0" y="0" width="90" style="clip-path:url(#clipPath1); stroke:none;" height="50" />
    </g>
    <g transform="translate(442,242)" style="stroke-linecap:butt; font-size:11; text-rendering:geometricPrecision; stroke-linejoin:round; font-family:sans-serif; font-weight:bold; stroke-miterlimit:0;">
      <rect x="0" y="0" width="90" style="clip-path:url(#clipPath1); fill:none;" height="50" />
      <line x1="0" x2="90" y1="14" style="clip-path:url(#clipPath1); fill:none;" y2="14" />
    </g>
    <g style="text-rendering:geometricPrecision; font-size:11; font-family:sans-serif;" transform="translate(442,256)">
      <text x="2" y="13" style="clip-path:url(#clipPath2); stroke:none;" xml:space="preserve">+init()</text>
      <text x="2" y="27" style="clip-path:url(#clipPath2); stroke:none;" xml:space="preserve">+_proxyState()</text>
    </g>
    <g transform="translate(442,242)" style="text-rendering:geometricPrecision; font-size:11; font-weight:bold; font-family:sans-serif;">
      <text x="27" y="11" style="clip-path:url(#clipPath3); stroke:none;" xml:space="preserve">Debug</text>
    </g>
    <g transform="translate(152,332)" style="font-size:11; fill:rgb(122,207,245); text-rendering:geometricPrecision; font-family:sans-serif; stroke:rgb(122,207,245); font-weight:bold;">
      <rect x="0" y="0" width="80" style="clip-path:url(#clipPath4); stroke:none;" height="160" />
    </g>
    <g transform="translate(152,332)" style="stroke-linecap:butt; font-size:11; text-rendering:geometricPrecision; stroke-linejoin:round; font-family:sans-serif; font-weight:bold; stroke-miterlimit:0;">
      <rect x="0" y="0" width="80" style="clip-path:url(#clipPath4); fill:none;" height="160" />
      <line x1="0" x2="80" y1="14" style="clip-path:url(#clipPath4); fill:none;" y2="14" />
    </g>
    <g style="text-rendering:geometricPrecision; font-size:11; font-family:sans-serif;" transform="translate(152,346)">
      <text x="2" y="13" style="clip-path:url(#clipPath5); stroke:none;" xml:space="preserve">+state</text>
      <line x1="0" x2="80" y1="18" style="stroke-linecap:butt; clip-path:url(#clipPath5); fill:none; stroke-linejoin:bevel; stroke-miterlimit:0;" y2="18" />
      <text x="2" y="31" style="clip-path:url(#clipPath5); stroke:none;" xml:space="preserve">+line()</text>
      <text x="2" y="45" style="clip-path:url(#clipPath5); stroke:none;" xml:space="preserve">+log()</text>
      <text x="2" y="59" style="clip-path:url(#clipPath5); stroke:none;" xml:space="preserve">+activate()</text>
      <text x="2" y="73" style="clip-path:url(#clipPath5); stroke:none;" xml:space="preserve">+deactivate()</text>
      <text x="2" y="87" style="clip-path:url(#clipPath5); stroke:none;" xml:space="preserve">+flip()</text>
      <text x="2" y="101" style="clip-path:url(#clipPath5); stroke:none;" xml:space="preserve">+__init__()</text>
      <text x="2" y="115" style="clip-path:url(#clipPath5); stroke:none;" xml:space="preserve">+_getState()</text>
      <text x="2" y="129" style="clip-path:url(#clipPath5); stroke:none;" xml:space="preserve">+_setState()</text>
    </g>
    <g transform="translate(152,332)" style="text-rendering:geometricPrecision; font-size:11; font-weight:bold; font-family:sans-serif;">
      <text x="10" y="11" style="clip-path:url(#clipPath6); stroke:none;" xml:space="preserve">Diagnostic</text>
    </g>
    <g transform="translate(12,332)" style="font-size:11; fill:rgb(122,207,245); text-rendering:geometricPrecision; font-family:sans-serif; stroke:rgb(122,207,245); font-weight:bold;">
      <rect x="0" y="0" width="80" style="clip-path:url(#clipPath7); stroke:none;" height="140" />
    </g>
    <g transform="translate(12,332)" style="stroke-linecap:butt; font-size:11; text-rendering:geometricPrecision; stroke-linejoin:round; font-family:sans-serif; font-weight:bold; stroke-miterlimit:0;">
      <rect x="0" y="0" width="80" style="clip-path:url(#clipPath7); fill:none;" height="140" />
      <line x1="0" x2="80" y1="14" style="clip-path:url(#clipPath7); fill:none;" y2="14" />
    </g>
    <g style="text-rendering:geometricPrecision; font-size:11; font-family:sans-serif;" transform="translate(12,346)">
      <text x="2" y="13" style="clip-path:url(#clipPath8); stroke:none;" xml:space="preserve">+path</text>
      <line x1="0" x2="80" y1="18" style="stroke-linecap:butt; clip-path:url(#clipPath8); fill:none; stroke-linejoin:bevel; stroke-miterlimit:0;" y2="18" />
      <text x="2" y="31" style="clip-path:url(#clipPath8); stroke:none;" xml:space="preserve">+identify()</text>
      <text x="2" y="45" style="clip-path:url(#clipPath8); stroke:none;" xml:space="preserve">+__init__()</text>
      <text x="2" y="59" style="clip-path:url(#clipPath8); stroke:none;" xml:space="preserve">+_getPath()</text>
      <text x="2" y="73" style="clip-path:url(#clipPath8); stroke:none;" xml:space="preserve">+_buildPath()</text>
      <text x="2" y="87" style="clip-path:url(#clipPath8); stroke:none;" xml:space="preserve">+attribute()</text>
      <text x="2" y="101" style="clip-path:url(#clipPath8); stroke:none;" xml:space="preserve">+line()</text>
      <text x="2" y="115" style="clip-path:url(#clipPath8); stroke:none;" xml:space="preserve">+__init__()</text>
    </g>
    <g transform="translate(12,332)" style="text-rendering:geometricPrecision; font-size:11; font-weight:bold; font-family:sans-serif;">
      <text x="25" y="11" style="clip-path:url(#clipPath6); stroke:none;" xml:space="preserve">Entry</text>
    </g>
    <g transform="translate(112,242)" style="font-size:11; fill:rgb(122,207,245); text-rendering:geometricPrecision; font-family:sans-serif; stroke:rgb(122,207,245); font-weight:bold;">
      <rect x="0" y="0" width="90" style="clip-path:url(#clipPath1); stroke:none;" height="50" />
    </g>
    <g transform="translate(112,242)" style="stroke-linecap:butt; font-size:11; text-rendering:geometricPrecision; stroke-linejoin:round; font-family:sans-serif; font-weight:bold; stroke-miterlimit:0;">
      <rect x="0" y="0" width="90" style="clip-path:url(#clipPath1); fill:none;" height="50" />
      <line x1="0" x2="90" y1="14" style="clip-path:url(#clipPath1); fill:none;" y2="14" />
    </g>
    <g style="text-rendering:geometricPrecision; font-size:11; font-family:sans-serif;" transform="translate(112,256)">
      <text x="2" y="13" style="clip-path:url(#clipPath2); stroke:none;" xml:space="preserve">+init()</text>
      <text x="2" y="27" style="clip-path:url(#clipPath2); stroke:none;" xml:space="preserve">+_proxyState()</text>
    </g>
    <g transform="translate(112,242)" style="text-rendering:geometricPrecision; font-size:11; font-weight:bold; font-family:sans-serif;">
      <text x="30" y="11" style="clip-path:url(#clipPath3); stroke:none;" xml:space="preserve">Error</text>
    </g>
    <g transform="translate(2,242)" style="font-size:11; fill:rgb(122,207,245); text-rendering:geometricPrecision; font-family:sans-serif; stroke:rgb(122,207,245); font-weight:bold;">
      <rect x="0" y="0" width="90" style="clip-path:url(#clipPath1); stroke:none;" height="50" />
    </g>
    <g transform="translate(2,242)" style="stroke-linecap:butt; font-size:11; text-rendering:geometricPrecision; stroke-linejoin:round; font-family:sans-serif; font-weight:bold; stroke-miterlimit:0;">
      <rect x="0" y="0" width="90" style="clip-path:url(#clipPath1); fill:none;" height="50" />
      <line x1="0" x2="90" y1="14" style="clip-path:url(#clipPath1); fill:none;" y2="14" />
    </g>
    <g style="text-rendering:geometricPrecision; font-size:11; font-family:sans-serif;" transform="translate(2,256)">
      <text x="2" y="13" style="clip-path:url(#clipPath2); stroke:none;" xml:space="preserve">+init()</text>
      <text x="2" y="27" style="clip-path:url(#clipPath2); stroke:none;" xml:space="preserve">+_proxyState()</text>
    </g>
    <g transform="translate(2,242)" style="text-rendering:geometricPrecision; font-size:11; font-weight:bold; font-family:sans-serif;">
      <text x="23" y="11" style="clip-path:url(#clipPath3); stroke:none;" xml:space="preserve">Firewall</text>
    </g>
    <g transform="translate(222,2)" style="font-size:11; fill:rgb(122,207,245); text-rendering:geometricPrecision; font-family:sans-serif; stroke:rgb(122,207,245); font-weight:bold;">
      <rect x="0" y="0" width="100" style="clip-path:url(#clipPath9); stroke:none;" height="110" />
    </g>
    <g transform="translate(222,2)" style="stroke-linecap:butt; font-size:11; text-rendering:geometricPrecision; stroke-linejoin:round; font-family:sans-serif; font-weight:bold; stroke-miterlimit:0;">
      <rect x="0" y="0" width="100" style="clip-path:url(#clipPath9); fill:none;" height="110" />
      <line x1="0" x2="100" y1="14" style="clip-path:url(#clipPath9); fill:none;" y2="14" />
    </g>
    <g style="text-rendering:geometricPrecision; font-size:11; font-family:sans-serif;" transform="translate(222,16)">
      <text x="2" y="13" style="clip-path:url(#clipPath10); stroke:none;" xml:space="preserve">+severity()</text>
      <text x="2" y="27" style="clip-path:url(#clipPath10); stroke:none;" xml:space="preserve">+facilities()</text>
      <text x="2" y="41" style="clip-path:url(#clipPath10); stroke:none;" xml:space="preserve">+diagnostic()</text>
      <text x="2" y="55" style="clip-path:url(#clipPath10); stroke:none;" xml:space="preserve">+init()</text>
      <text x="2" y="69" style="clip-path:url(#clipPath10); stroke:none;" xml:space="preserve">+_stateFactory()</text>
      <text x="2" y="83" style="clip-path:url(#clipPath10); stroke:none;" xml:space="preserve">+__new__()</text>
    </g>
    <g transform="translate(222,2)" style="text-rendering:geometricPrecision; font-size:11; font-weight:bold; font-family:sans-serif;">
      <text x="34" y="11" style="clip-path:url(#clipPath11); stroke:none;" xml:space="preserve">Index</text>
    </g>
    <g transform="translate(222,242)" style="font-size:11; fill:rgb(122,207,245); text-rendering:geometricPrecision; font-family:sans-serif; stroke:rgb(122,207,245); font-weight:bold;">
      <rect x="0" y="0" width="90" style="clip-path:url(#clipPath1); stroke:none;" height="50" />
    </g>
    <g transform="translate(222,242)" style="stroke-linecap:butt; font-size:11; text-rendering:geometricPrecision; stroke-linejoin:round; font-family:sans-serif; font-weight:bold; stroke-miterlimit:0;">
      <rect x="0" y="0" width="90" style="clip-path:url(#clipPath1); fill:none;" height="50" />
      <line x1="0" x2="90" y1="14" style="clip-path:url(#clipPath1); fill:none;" y2="14" />
    </g>
    <g style="text-rendering:geometricPrecision; font-size:11; font-family:sans-serif;" transform="translate(222,256)">
      <text x="2" y="13" style="clip-path:url(#clipPath2); stroke:none;" xml:space="preserve">+init()</text>
      <text x="2" y="27" style="clip-path:url(#clipPath2); stroke:none;" xml:space="preserve">+_proxyState()</text>
    </g>
    <g transform="translate(222,242)" style="text-rendering:geometricPrecision; font-size:11; font-weight:bold; font-family:sans-serif;">
      <text x="33" y="11" style="clip-path:url(#clipPath3); stroke:none;" xml:space="preserve">Info</text>
    </g>
    <g transform="translate(512,332)" style="font-size:11; fill:rgb(122,207,245); text-rendering:geometricPrecision; font-family:sans-serif; stroke:rgb(122,207,245); font-weight:bold;">
      <rect x="0" y="0" width="80" style="clip-path:url(#clipPath12); stroke:none;" height="110" />
    </g>
    <g transform="translate(512,332)" style="stroke-linecap:butt; font-size:11; text-rendering:geometricPrecision; stroke-linejoin:round; font-family:sans-serif; font-weight:bold; stroke-miterlimit:0;">
      <rect x="0" y="0" width="80" style="clip-path:url(#clipPath12); fill:none;" height="110" />
      <line x1="0" x2="80" y1="14" style="clip-path:url(#clipPath12); fill:none;" y2="14" />
    </g>
    <g style="text-rendering:geometricPrecision; font-size:11; font-family:sans-serif;" transform="translate(512,346)">
      <text x="2" y="13" style="clip-path:url(#clipPath13); stroke:none;" xml:space="preserve">+get()</text>
      <text x="2" y="27" style="clip-path:url(#clipPath13); stroke:none;" xml:space="preserve">+set()</text>
      <text x="2" y="41" style="clip-path:url(#clipPath13); stroke:none;" xml:space="preserve">+activate()</text>
      <text x="2" y="55" style="clip-path:url(#clipPath13); stroke:none;" xml:space="preserve">+deactivate()</text>
      <text x="2" y="69" style="clip-path:url(#clipPath13); stroke:none;" xml:space="preserve">+flip()</text>
      <text x="2" y="83" style="clip-path:url(#clipPath13); stroke:none;" xml:space="preserve">+__init__()</text>
    </g>
    <g transform="translate(512,332)" style="text-rendering:geometricPrecision; font-size:11; font-weight:bold; font-family:sans-serif;">
      <text x="11" y="11" style="clip-path:url(#clipPath6); stroke:none;" xml:space="preserve">ProxyState</text>
    </g>
    <g transform="translate(2,662)" style="font-size:11; fill:rgb(122,207,245); text-rendering:geometricPrecision; font-family:sans-serif; stroke:rgb(122,207,245); font-weight:bold;">
      <rect x="0" y="0" width="80" style="clip-path:url(#clipPath12); stroke:none;" height="110" />
    </g>
    <g transform="translate(2,662)" style="stroke-linecap:butt; font-size:11; text-rendering:geometricPrecision; stroke-linejoin:round; font-family:sans-serif; font-weight:bold; stroke-miterlimit:0;">
      <rect x="0" y="0" width="80" style="clip-path:url(#clipPath12); fill:none;" height="110" />
      <line x1="0" x2="80" y1="14" style="clip-path:url(#clipPath12); fill:none;" y2="14" />
    </g>
    <g style="text-rendering:geometricPrecision; font-size:11; font-family:sans-serif;" transform="translate(2,676)">
      <text x="2" y="13" style="clip-path:url(#clipPath13); stroke:none;" xml:space="preserve">+get()</text>
      <text x="2" y="27" style="clip-path:url(#clipPath13); stroke:none;" xml:space="preserve">+set()</text>
      <text x="2" y="41" style="clip-path:url(#clipPath13); stroke:none;" xml:space="preserve">+activate()</text>
      <text x="2" y="55" style="clip-path:url(#clipPath13); stroke:none;" xml:space="preserve">+deactivate()</text>
      <text x="2" y="69" style="clip-path:url(#clipPath13); stroke:none;" xml:space="preserve">+flip()</text>
      <text x="2" y="83" style="clip-path:url(#clipPath13); stroke:none;" xml:space="preserve">+__init__()</text>
    </g>
    <g transform="translate(2,662)" style="text-rendering:geometricPrecision; font-size:11; font-weight:bold; font-family:sans-serif;">
      <text x="27" y="11" style="clip-path:url(#clipPath6); stroke:none;" xml:space="preserve">State</text>
    </g>
    <g transform="translate(332,242)" style="font-size:11; fill:rgb(122,207,245); text-rendering:geometricPrecision; font-family:sans-serif; stroke:rgb(122,207,245); font-weight:bold;">
      <rect x="0" y="0" width="90" style="clip-path:url(#clipPath1); stroke:none;" height="50" />
    </g>
    <g transform="translate(332,242)" style="stroke-linecap:butt; font-size:11; text-rendering:geometricPrecision; stroke-linejoin:round; font-family:sans-serif; font-weight:bold; stroke-miterlimit:0;">
      <rect x="0" y="0" width="90" style="clip-path:url(#clipPath1); fill:none;" height="50" />
      <line x1="0" x2="90" y1="14" style="clip-path:url(#clipPath1); fill:none;" y2="14" />
    </g>
    <g style="text-rendering:geometricPrecision; font-size:11; font-family:sans-serif;" transform="translate(332,256)">
      <text x="2" y="13" style="clip-path:url(#clipPath2); stroke:none;" xml:space="preserve">+init()</text>
      <text x="2" y="27" style="clip-path:url(#clipPath2); stroke:none;" xml:space="preserve">+_proxyState()</text>
    </g>
    <g transform="translate(332,242)" style="text-rendering:geometricPrecision; font-size:11; font-weight:bold; font-family:sans-serif;">
      <text x="22" y="11" style="clip-path:url(#clipPath3); stroke:none;" xml:space="preserve">Warning</text>
    </g>
    <g transform="translate(392,392)" style="font-size:11; fill:rgb(122,207,245); text-rendering:geometricPrecision; font-family:sans-serif; stroke:rgb(122,207,245); font-weight:bold;">
      <rect x="0" y="0" width="80" style="clip-path:url(#clipPath14); stroke:none;" height="50" />
    </g>
    <g transform="translate(392,392)" style="stroke-linecap:butt; font-size:11; text-rendering:geometricPrecision; stroke-linejoin:round; font-family:sans-serif; font-weight:bold; stroke-miterlimit:0;">
      <rect x="0" y="0" width="80" style="clip-path:url(#clipPath14); fill:none;" height="50" />
      <line x1="0" x2="80" y1="14" style="clip-path:url(#clipPath14); fill:none;" y2="14" />
    </g>
    <g style="text-rendering:geometricPrecision; font-size:11; font-family:sans-serif;" transform="translate(392,406)">
      <text x="2" y="13" style="clip-path:url(#clipPath15); stroke:none;" xml:space="preserve">+__init__()</text>
      <text x="2" y="27" style="clip-path:url(#clipPath15); stroke:none;" xml:space="preserve">+__str__()</text>
    </g>
    <g transform="translate(392,392)" style="text-rendering:geometricPrecision; font-size:11; font-weight:bold; font-family:sans-serif;">
      <text x="27" y="11" style="clip-path:url(#clipPath6); stroke:none;" xml:space="preserve">Fatal</text>
    </g>
    <g transform="translate(2,532)" style="font-size:11; fill:rgb(122,207,245); text-rendering:geometricPrecision; font-family:sans-serif; stroke:rgb(122,207,245); font-weight:bold;">
      <rect x="0" y="0" width="100" style="clip-path:url(#clipPath16); stroke:none;" height="80" />
    </g>
    <g transform="translate(2,532)" style="stroke-linecap:butt; font-size:11; text-rendering:geometricPrecision; stroke-linejoin:round; font-family:sans-serif; font-weight:bold; stroke-miterlimit:0;">
      <rect x="0" y="0" width="100" style="clip-path:url(#clipPath16); fill:none;" height="80" />
      <line x1="0" x2="100" y1="14" style="clip-path:url(#clipPath16); fill:none;" y2="14" />
    </g>
    <g style="text-rendering:geometricPrecision; font-size:11; font-family:sans-serif;" transform="translate(2,546)">
      <text x="2" y="13" style="clip-path:url(#clipPath17); stroke:none;" xml:space="preserve">+identify()</text>
      <text x="2" y="27" style="clip-path:url(#clipPath17); stroke:none;" xml:space="preserve">+createDevice()</text>
      <text x="2" y="41" style="clip-path:url(#clipPath17); stroke:none;" xml:space="preserve">+__init__()</text>
      <text x="2" y="55" style="clip-path:url(#clipPath17); stroke:none;" xml:space="preserve">+_write()</text>
    </g>
    <g transform="translate(2,532)" style="text-rendering:geometricPrecision; font-size:11; font-weight:bold; font-family:sans-serif;">
      <text x="40" y="11" style="clip-path:url(#clipPath11); stroke:none;" xml:space="preserve">File</text>
    </g>
    <g transform="translate(2,422)" style="font-size:11; stroke-linecap:butt; text-rendering:geometricPrecision; font-family:sans-serif; stroke-linejoin:round;">
      <line x1="50" x2="50" y1="50" style="clip-path:url(#clipPath18); fill:none;" y2="109" />
      <polygon style="fill:rgb(122,207,245); clip-path:url(#clipPath18); stroke:none;" points=" 50 50 44 62 56 62" />
      <polygon style="fill:none; clip-path:url(#clipPath18);" points=" 50 50 44 62 56 62" />
    </g>
    <g transform="translate(222,62)" style="font-size:11; stroke-linecap:butt; text-rendering:geometricPrecision; font-family:sans-serif; stroke-linejoin:round;">
      <line x1="50" x2="50" y1="50" style="clip-path:url(#clipPath19); fill:none;" y2="100" />
      <line x1="50" x2="270" y1="100" style="clip-path:url(#clipPath19); fill:none;" y2="100" />
      <line x1="270" x2="270" y1="100" style="clip-path:url(#clipPath19); fill:none;" y2="179" />
      <polygon style="fill:rgb(122,207,245); clip-path:url(#clipPath19); stroke:none;" points=" 50 50 44 62 56 62" />
      <polygon style="fill:none; clip-path:url(#clipPath19);" points=" 50 50 44 62 56 62" />
    </g>
    <g transform="translate(222,62)" style="font-size:11; stroke-linecap:butt; text-rendering:geometricPrecision; font-family:sans-serif; stroke-linejoin:round;">
      <line x1="50" x2="50" y1="50" style="clip-path:url(#clipPath20); fill:none;" y2="100" />
      <line x1="50" x2="160" y1="100" style="clip-path:url(#clipPath20); fill:none;" y2="100" />
      <line x1="160" x2="160" y1="100" style="clip-path:url(#clipPath20); fill:none;" y2="179" />
      <polygon style="fill:rgb(122,207,245); clip-path:url(#clipPath20); stroke:none;" points=" 50 50 44 62 56 62" />
      <polygon style="fill:none; clip-path:url(#clipPath20);" points=" 50 50 44 62 56 62" />
    </g>
    <g transform="translate(222,62)" style="font-size:11; stroke-linecap:butt; text-rendering:geometricPrecision; font-family:sans-serif; stroke-linejoin:round;">
      <line x1="50" x2="50" y1="50" style="clip-path:url(#clipPath21); fill:none;" y2="179" />
      <polygon style="fill:rgb(122,207,245); clip-path:url(#clipPath21); stroke:none;" points=" 50 50 44 62 56 62" />
      <polygon style="fill:none; clip-path:url(#clipPath21);" points=" 50 50 44 62 56 62" />
    </g>
    <g transform="translate(112,62)" style="font-size:11; stroke-linecap:butt; text-rendering:geometricPrecision; font-family:sans-serif; stroke-linejoin:round;">
      <line x1="160" x2="160" y1="50" style="clip-path:url(#clipPath20); fill:none;" y2="100" />
      <line x1="160" x2="50" y1="100" style="clip-path:url(#clipPath20); fill:none;" y2="100" />
      <line x1="50" x2="50" y1="100" style="clip-path:url(#clipPath20); fill:none;" y2="179" />
      <polygon style="fill:rgb(122,207,245); clip-path:url(#clipPath20); stroke:none;" points=" 160 50 154 62 166 62" />
      <polygon style="fill:none; clip-path:url(#clipPath20);" points=" 160 50 154 62 166 62" />
    </g>
    <g transform="translate(2,62)" style="font-size:11; stroke-linecap:butt; text-rendering:geometricPrecision; font-family:sans-serif; stroke-linejoin:round;">
      <line x1="270" x2="270" y1="50" style="clip-path:url(#clipPath19); fill:none;" y2="100" />
      <line x1="270" x2="50" y1="100" style="clip-path:url(#clipPath19); fill:none;" y2="100" />
      <line x1="50" x2="50" y1="100" style="clip-path:url(#clipPath19); fill:none;" y2="179" />
      <polygon style="fill:rgb(122,207,245); clip-path:url(#clipPath19); stroke:none;" points=" 270 50 264 62 276 62" />
      <polygon style="fill:none; clip-path:url(#clipPath19);" points=" 270 50 264 62 276 62" />
    </g>
    <g transform="translate(182,362)" style="font-size:11; stroke-linecap:butt; text-rendering:geometricPrecision; font-family:sans-serif; stroke-linejoin:round;">
      <line x1="50" x2="209" y1="50" style="clip-path:url(#clipPath22); fill:none;" y2="50" />
      <circle style="fill:none; clip-path:url(#clipPath22);" r="6" cx="56" cy="50" />
      <line x1="56" x2="56" y1="45" style="clip-path:url(#clipPath22); fill:none;" y2="55" />
    </g>
  </g>
</svg>
