<?xml version="1.0" encoding="UTF-8"?>

<!DOCTYPE svg PUBLIC '-//W3C//DTD SVG 1.0//EN' 'http://www.w3.org/TR/2001/REC-SVG-20010904/DTD/svg10.dtd'>
<svg style="fill-opacity:1; color-rendering:auto; color-interpolation:auto; text-rendering:auto; stroke:black; stroke-linecap:square; stroke-miterlimit:10; shape-rendering:auto; stroke-opacity:1; fill:black; stroke-dasharray:none; font-weight:normal; stroke-width:1; font-family:&apos;Dialog&apos;; font-style:normal; stroke-linejoin:miter; font-size:12; stroke-dashoffset:0; image-rendering:auto;" xmlns="http://www.w3.org/2000/svg" width="356" xmlns:xlink="http://www.w3.org/1999/xlink" height="276">
  <!--Generated by the Batik Graphics2D SVG Generator-->
  <defs id="genericDefs" />
  <g>
    <defs id="defs1">
      <clipPath clipPathUnits="userSpaceOnUse" id="clipPath1">
        <path d="M-3 -3 L87 -3 L87 147 L-3 147 L-3 -3 Z" />
      </clipPath>
      <clipPath clipPathUnits="userSpaceOnUse" id="clipPath2">
        <path d="M0 0 L0 133 L80 133 L80 0 Z" />
      </clipPath>
      <clipPath clipPathUnits="userSpaceOnUse" id="clipPath3">
        <path d="M0 0 L0 14 L80 14 L80 0 Z" />
      </clipPath>
      <clipPath clipPathUnits="userSpaceOnUse" id="clipPath4">
        <path d="M-3 -3 L87 -3 L87 117 L-3 117 L-3 -3 Z" />
      </clipPath>
      <clipPath clipPathUnits="userSpaceOnUse" id="clipPath5">
        <path d="M0 0 L0 103 L80 103 L80 0 Z" />
      </clipPath>
      <clipPath clipPathUnits="userSpaceOnUse" id="clipPath6">
        <path d="M-3 -3 L147 -3 L147 77 L-3 77 L-3 -3 Z" />
      </clipPath>
      <clipPath clipPathUnits="userSpaceOnUse" id="clipPath7">
        <path d="M0 0 L0 63 L140 63 L140 0 Z" />
      </clipPath>
      <clipPath clipPathUnits="userSpaceOnUse" id="clipPath8">
        <path d="M0 0 L0 14 L140 14 L140 0 Z" />
      </clipPath>
      <clipPath clipPathUnits="userSpaceOnUse" id="clipPath9">
        <path d="M0 0 L104 0 L104 163 L0 163 L0 0 Z" />
      </clipPath>
      <clipPath clipPathUnits="userSpaceOnUse" id="clipPath10">
        <path d="M0 0 L263 0 L263 104 L0 104 L0 0 Z" />
      </clipPath>
    </defs>
    <g style="fill:white; text-rendering:geometricPrecision; stroke:white;">
      <rect x="0" y="0" width="356" style="stroke:none;" height="276" />
    </g>
    <g transform="translate(32,132)" style="font-size:11; fill:rgb(122,207,245); text-rendering:geometricPrecision; font-family:sans-serif; stroke:rgb(122,207,245); font-weight:bold;">
      <rect x="0" y="0" width="80" style="clip-path:url(#clipPath1); stroke:none;" height="140" />
    </g>
    <g transform="translate(32,132)" style="stroke-linecap:butt; font-size:11; text-rendering:geometricPrecision; stroke-linejoin:round; font-family:sans-serif; font-weight:bold; stroke-miterlimit:0;">
      <rect x="0" y="0" width="80" style="clip-path:url(#clipPath1); fill:none;" height="140" />
      <line x1="0" x2="80" y1="14" style="clip-path:url(#clipPath1); fill:none;" y2="14" />
    </g>
    <g style="text-rendering:geometricPrecision; font-size:11; font-family:sans-serif;" transform="translate(32,146)">
      <text x="2" y="13" style="clip-path:url(#clipPath2); stroke:none;" xml:space="preserve">+record()</text>
      <text x="2" y="27" style="clip-path:url(#clipPath2); stroke:none;" xml:space="preserve">+entry()</text>
      <text x="2" y="41" style="clip-path:url(#clipPath2); stroke:none;" xml:space="preserve">+channel()</text>
      <text x="2" y="55" style="clip-path:url(#clipPath2); stroke:none;" xml:space="preserve">+channels()</text>
      <text x="2" y="69" style="clip-path:url(#clipPath2); stroke:none;" xml:space="preserve">+__init__()</text>
      <text x="2" y="83" style="clip-path:url(#clipPath2); stroke:none;" xml:space="preserve">+device()</text>
      <text x="2" y="97" style="clip-path:url(#clipPath2); stroke:none;" xml:space="preserve">+__init__()</text>
      <text x="2" y="111" style="clip-path:url(#clipPath2); stroke:none;" xml:space="preserve">+_init()</text>
    </g>
    <g transform="translate(32,132)" style="text-rendering:geometricPrecision; font-size:11; font-weight:bold; font-family:sans-serif;">
      <text x="19" y="11" style="clip-path:url(#clipPath3); stroke:none;" xml:space="preserve">Journal</text>
    </g>
    <g transform="translate(272,142)" style="font-size:11; fill:rgb(122,207,245); text-rendering:geometricPrecision; font-family:sans-serif; stroke:rgb(122,207,245); font-weight:bold;">
      <rect x="0" y="0" width="80" style="clip-path:url(#clipPath4); stroke:none;" height="110" />
    </g>
    <g transform="translate(272,142)" style="stroke-linecap:butt; font-size:11; text-rendering:geometricPrecision; stroke-linejoin:round; font-family:sans-serif; font-weight:bold; stroke-miterlimit:0;">
      <rect x="0" y="0" width="80" style="clip-path:url(#clipPath4); fill:none;" height="110" />
      <line x1="0" x2="80" y1="14" style="clip-path:url(#clipPath4); fill:none;" y2="14" />
    </g>
    <g style="text-rendering:geometricPrecision; font-size:11; font-family:sans-serif;" transform="translate(272,156)">
      <text x="2" y="13" style="clip-path:url(#clipPath5); stroke:none;" xml:space="preserve">+error</text>
      <text x="2" y="27" style="clip-path:url(#clipPath5); stroke:none;" xml:space="preserve">+warning</text>
      <text x="2" y="41" style="clip-path:url(#clipPath5); stroke:none;" xml:space="preserve">+info</text>
      <text x="2" y="55" style="clip-path:url(#clipPath5); stroke:none;" xml:space="preserve">+debug</text>
      <text x="2" y="69" style="clip-path:url(#clipPath5); stroke:none;" xml:space="preserve">+firewall</text>
      <text x="2" y="83" style="clip-path:url(#clipPath5); stroke:none;" xml:space="preserve">+device</text>
    </g>
    <g transform="translate(272,142)" style="text-rendering:geometricPrecision; font-size:11; font-weight:bold; font-family:sans-serif;">
      <text x="13" y="11" style="clip-path:url(#clipPath3); stroke:none;" xml:space="preserve">Inventory</text>
    </g>
    <g transform="translate(2,2)" style="font-size:11; fill:rgb(122,207,245); text-rendering:geometricPrecision; font-family:sans-serif; stroke:rgb(122,207,245); font-weight:bold;">
      <rect x="0" y="0" width="140" style="clip-path:url(#clipPath6); stroke:none;" height="70" />
    </g>
    <g transform="translate(2,2)" style="stroke-linecap:butt; font-size:11; text-rendering:geometricPrecision; stroke-linejoin:round; font-family:sans-serif; font-weight:bold; stroke-miterlimit:0;">
      <rect x="0" y="0" width="140" style="clip-path:url(#clipPath6); fill:none;" height="70" />
      <line x1="0" x2="140" y1="14" style="clip-path:url(#clipPath6); fill:none;" y2="14" />
    </g>
    <g style="text-rendering:geometricPrecision; font-size:11; font-family:sans-serif;" transform="translate(2,16)">
      <text x="2" y="13" style="clip-path:url(#clipPath7); stroke:none;" xml:space="preserve">+updateConfiguration()</text>
      <text x="2" y="27" style="clip-path:url(#clipPath7); stroke:none;" xml:space="preserve">+__init__()</text>
      <text x="2" y="41" style="clip-path:url(#clipPath7); stroke:none;" xml:space="preserve">+_init()</text>
    </g>
    <g transform="translate(2,2)" style="text-rendering:geometricPrecision; font-size:11; font-weight:bold; font-family:sans-serif;">
      <text x="38" y="11" style="clip-path:url(#clipPath8); stroke:none;" xml:space="preserve">Component</text>
    </g>
    <g transform="translate(22,22)" style="font-size:11; stroke-linecap:butt; text-rendering:geometricPrecision; font-family:sans-serif; stroke-linejoin:round;">
      <line x1="50" x2="50" y1="50" style="clip-path:url(#clipPath9); fill:none;" y2="109" />
      <polygon style="fill:rgb(122,207,245); clip-path:url(#clipPath9); stroke:none;" points=" 50 50 44 62 56 62" />
      <polygon style="fill:none; clip-path:url(#clipPath9);" points=" 50 50 44 62 56 62" />
    </g>
    <g transform="translate(62,152)" style="font-size:11; stroke-linecap:butt; text-rendering:geometricPrecision; font-family:sans-serif; stroke-linejoin:round;">
      <line x1="50" x2="209" y1="50" style="clip-path:url(#clipPath10); fill:none;" y2="50" />
      <circle style="fill:none; clip-path:url(#clipPath10);" r="6" cx="56" cy="50" />
      <line x1="56" x2="56" y1="45" style="clip-path:url(#clipPath10); fill:none;" y2="55" />
    </g>
  </g>
</svg>
