<?xml version="1.0" encoding="UTF-8"?>

<!DOCTYPE svg PUBLIC '-//W3C//DTD SVG 1.0//EN' 'http://www.w3.org/TR/2001/REC-SVG-20010904/DTD/svg10.dtd'>
<svg style="fill-opacity:1; color-rendering:auto; color-interpolation:auto; text-rendering:auto; stroke:black; stroke-linecap:square; stroke-miterlimit:10; shape-rendering:auto; stroke-opacity:1; fill:black; stroke-dasharray:none; font-weight:normal; stroke-width:1; font-family:&apos;Dialog&apos;; font-style:normal; stroke-linejoin:miter; font-size:12; stroke-dashoffset:0; image-rendering:auto;" xmlns="http://www.w3.org/2000/svg" width="1206" xmlns:xlink="http://www.w3.org/1999/xlink" height="676">
  <!--Generated by the Batik Graphics2D SVG Generator-->
  <defs id="genericDefs" />
  <g>
    <defs id="defs1">
      <clipPath clipPathUnits="userSpaceOnUse" id="clipPath1">
        <path d="M-3 -3 L97 -3 L97 47 L-3 47 L-3 -3 Z" />
      </clipPath>
      <clipPath clipPathUnits="userSpaceOnUse" id="clipPath2">
        <path d="M0 0 L0 33 L90 33 L90 0 Z" />
      </clipPath>
      <clipPath clipPathUnits="userSpaceOnUse" id="clipPath3">
        <path d="M0 0 L0 14 L90 14 L90 0 Z" />
      </clipPath>
      <clipPath clipPathUnits="userSpaceOnUse" id="clipPath4">
        <path d="M-3 -3 L127 -3 L127 47 L-3 47 L-3 -3 Z" />
      </clipPath>
      <clipPath clipPathUnits="userSpaceOnUse" id="clipPath5">
        <path d="M0 0 L0 33 L120 33 L120 0 Z" />
      </clipPath>
      <clipPath clipPathUnits="userSpaceOnUse" id="clipPath6">
        <path d="M0 0 L0 14 L120 14 L120 0 Z" />
      </clipPath>
      <clipPath clipPathUnits="userSpaceOnUse" id="clipPath7">
        <path d="M-3 -3 L117 -3 L117 117 L-3 117 L-3 -3 Z" />
      </clipPath>
      <clipPath clipPathUnits="userSpaceOnUse" id="clipPath8">
        <path d="M0 0 L0 103 L110 103 L110 0 Z" />
      </clipPath>
      <clipPath clipPathUnits="userSpaceOnUse" id="clipPath9">
        <path d="M0 0 L0 14 L110 14 L110 0 Z" />
      </clipPath>
      <clipPath clipPathUnits="userSpaceOnUse" id="clipPath10">
        <path d="M-3 -3 L87 -3 L87 147 L-3 147 L-3 -3 Z" />
      </clipPath>
      <clipPath clipPathUnits="userSpaceOnUse" id="clipPath11">
        <path d="M0 0 L0 133 L80 133 L80 0 Z" />
      </clipPath>
      <clipPath clipPathUnits="userSpaceOnUse" id="clipPath12">
        <path d="M0 0 L0 14 L80 14 L80 0 Z" />
      </clipPath>
      <clipPath clipPathUnits="userSpaceOnUse" id="clipPath13">
        <path d="M-3 -3 L107 -3 L107 87 L-3 87 L-3 -3 Z" />
      </clipPath>
      <clipPath clipPathUnits="userSpaceOnUse" id="clipPath14">
        <path d="M0 0 L0 73 L100 73 L100 0 Z" />
      </clipPath>
      <clipPath clipPathUnits="userSpaceOnUse" id="clipPath15">
        <path d="M0 0 L0 14 L100 14 L100 0 Z" />
      </clipPath>
      <clipPath clipPathUnits="userSpaceOnUse" id="clipPath16">
        <path d="M-3 -3 L87 -3 L87 77 L-3 77 L-3 -3 Z" />
      </clipPath>
      <clipPath clipPathUnits="userSpaceOnUse" id="clipPath17">
        <path d="M0 0 L0 63 L80 63 L80 0 Z" />
      </clipPath>
      <clipPath clipPathUnits="userSpaceOnUse" id="clipPath18">
        <path d="M-3 -3 L97 -3 L97 77 L-3 77 L-3 -3 Z" />
      </clipPath>
      <clipPath clipPathUnits="userSpaceOnUse" id="clipPath19">
        <path d="M0 0 L0 63 L90 63 L90 0 Z" />
      </clipPath>
      <clipPath clipPathUnits="userSpaceOnUse" id="clipPath20">
        <path d="M-3 -3 L137 -3 L137 127 L-3 127 L-3 -3 Z" />
      </clipPath>
      <clipPath clipPathUnits="userSpaceOnUse" id="clipPath21">
        <path d="M0 0 L0 113 L130 113 L130 0 Z" />
      </clipPath>
      <clipPath clipPathUnits="userSpaceOnUse" id="clipPath22">
        <path d="M0 0 L0 14 L130 14 L130 0 Z" />
      </clipPath>
      <clipPath clipPathUnits="userSpaceOnUse" id="clipPath23">
        <path d="M-3 -3 L87 -3 L87 47 L-3 47 L-3 -3 Z" />
      </clipPath>
      <clipPath clipPathUnits="userSpaceOnUse" id="clipPath24">
        <path d="M0 0 L0 33 L80 33 L80 0 Z" />
      </clipPath>
      <clipPath clipPathUnits="userSpaceOnUse" id="clipPath25">
        <path d="M-3 -3 L87 -3 L87 57 L-3 57 L-3 -3 Z" />
      </clipPath>
      <clipPath clipPathUnits="userSpaceOnUse" id="clipPath26">
        <path d="M0 0 L0 43 L80 43 L80 0 Z" />
      </clipPath>
      <clipPath clipPathUnits="userSpaceOnUse" id="clipPath27">
        <path d="M-3 -3 L137 -3 L137 187 L-3 187 L-3 -3 Z" />
      </clipPath>
      <clipPath clipPathUnits="userSpaceOnUse" id="clipPath28">
        <path d="M0 0 L0 173 L130 173 L130 0 Z" />
      </clipPath>
      <clipPath clipPathUnits="userSpaceOnUse" id="clipPath29">
        <path d="M-3 -3 L107 -3 L107 77 L-3 77 L-3 -3 Z" />
      </clipPath>
      <clipPath clipPathUnits="userSpaceOnUse" id="clipPath30">
        <path d="M0 0 L0 63 L100 63 L100 0 Z" />
      </clipPath>
      <clipPath clipPathUnits="userSpaceOnUse" id="clipPath31">
        <path d="M0 0 L104 0 L104 163 L0 163 L0 0 Z" />
      </clipPath>
      <clipPath clipPathUnits="userSpaceOnUse" id="clipPath32">
        <path d="M0 0 L104 0 L104 123 L0 123 L0 0 Z" />
      </clipPath>
      <clipPath clipPathUnits="userSpaceOnUse" id="clipPath33">
        <path d="M0 0 L364 0 L364 233 L0 233 L0 0 Z" />
      </clipPath>
      <clipPath clipPathUnits="userSpaceOnUse" id="clipPath34">
        <path d="M0 0 L254 0 L254 233 L0 233 L0 0 Z" />
      </clipPath>
      <clipPath clipPathUnits="userSpaceOnUse" id="clipPath35">
        <path d="M0 0 L154 0 L154 233 L0 233 L0 0 Z" />
      </clipPath>
      <clipPath clipPathUnits="userSpaceOnUse" id="clipPath36">
        <path d="M0 0 L274 0 L274 193 L0 193 L0 0 Z" />
      </clipPath>
      <clipPath clipPathUnits="userSpaceOnUse" id="clipPath37">
        <path d="M0 0 L414 0 L414 233 L0 233 L0 0 Z" />
      </clipPath>
      <clipPath clipPathUnits="userSpaceOnUse" id="clipPath38">
        <path d="M0 0 L164 0 L164 233 L0 233 L0 0 Z" />
      </clipPath>
      <clipPath clipPathUnits="userSpaceOnUse" id="clipPath39">
        <path d="M0 0 L164 0 L164 283 L0 283 L0 0 Z" />
      </clipPath>
      <clipPath clipPathUnits="userSpaceOnUse" id="clipPath40">
        <path d="M0 0 L164 0 L164 253 L0 253 L0 0 Z" />
      </clipPath>
    </defs>
    <g style="fill:white; text-rendering:geometricPrecision; stroke:white;">
      <rect x="0" y="0" width="1206" style="stroke:none;" height="676" />
    </g>
    <g transform="translate(802,372)" style="font-size:11; fill:rgb(122,207,245); text-rendering:geometricPrecision; font-family:sans-serif; stroke:rgb(122,207,245); font-weight:bold;">
      <rect x="0" y="0" width="90" style="clip-path:url(#clipPath1); stroke:none;" height="40" />
    </g>
    <g transform="translate(802,372)" style="stroke-linecap:butt; font-size:11; text-rendering:geometricPrecision; stroke-linejoin:round; font-family:sans-serif; font-weight:bold; stroke-miterlimit:0;">
      <rect x="0" y="0" width="90" style="clip-path:url(#clipPath1); fill:none;" height="40" />
      <line x1="0" x2="90" y1="14" style="clip-path:url(#clipPath1); fill:none;" y2="14" />
    </g>
    <g style="text-rendering:geometricPrecision; font-size:11; font-family:sans-serif;" transform="translate(802,386)">
      <text x="2" y="13" style="clip-path:url(#clipPath2); stroke:none;" xml:space="preserve">+identify()</text>
    </g>
    <g transform="translate(802,372)" style="text-rendering:geometricPrecision; font-size:11; font-weight:bold; font-family:sans-serif;">
      <text x="10" y="11" style="clip-path:url(#clipPath3); stroke:none;" xml:space="preserve">BlockDevice</text>
    </g>
    <g transform="translate(532,372)" style="font-size:11; fill:rgb(122,207,245); text-rendering:geometricPrecision; font-family:sans-serif; stroke:rgb(122,207,245); font-weight:bold;">
      <rect x="0" y="0" width="120" style="clip-path:url(#clipPath4); stroke:none;" height="40" />
    </g>
    <g transform="translate(532,372)" style="stroke-linecap:butt; font-size:11; text-rendering:geometricPrecision; stroke-linejoin:round; font-family:sans-serif; font-weight:bold; stroke-miterlimit:0;">
      <rect x="0" y="0" width="120" style="clip-path:url(#clipPath4); fill:none;" height="40" />
      <line x1="0" x2="120" y1="14" style="clip-path:url(#clipPath4); fill:none;" y2="14" />
    </g>
    <g style="text-rendering:geometricPrecision; font-size:11; font-family:sans-serif;" transform="translate(532,386)">
      <text x="2" y="13" style="clip-path:url(#clipPath5); stroke:none;" xml:space="preserve">+identify()</text>
    </g>
    <g transform="translate(532,372)" style="text-rendering:geometricPrecision; font-size:11; font-weight:bold; font-family:sans-serif;">
      <text x="14" y="11" style="clip-path:url(#clipPath6); stroke:none;" xml:space="preserve">CharacterDevice</text>
    </g>
    <g transform="translate(672,332)" style="font-size:11; fill:rgb(122,207,245); text-rendering:geometricPrecision; font-family:sans-serif; stroke:rgb(122,207,245); font-weight:bold;">
      <rect x="0" y="0" width="110" style="clip-path:url(#clipPath7); stroke:none;" height="110" />
    </g>
    <g transform="translate(672,332)" style="stroke-linecap:butt; font-size:11; text-rendering:geometricPrecision; stroke-linejoin:round; font-family:sans-serif; font-weight:bold; stroke-miterlimit:0;">
      <rect x="0" y="0" width="110" style="clip-path:url(#clipPath7); fill:none;" height="110" />
      <line x1="0" x2="110" y1="14" style="clip-path:url(#clipPath7); fill:none;" y2="14" />
    </g>
    <g style="text-rendering:geometricPrecision; font-size:11; font-family:sans-serif;" transform="translate(672,346)">
      <text x="2" y="13" style="clip-path:url(#clipPath8); stroke:none;" xml:space="preserve">+identify()</text>
      <text x="2" y="27" style="clip-path:url(#clipPath8); stroke:none;" xml:space="preserve">+children()</text>
      <text x="2" y="41" style="clip-path:url(#clipPath8); stroke:none;" xml:space="preserve">+files()</text>
      <text x="2" y="55" style="clip-path:url(#clipPath8); stroke:none;" xml:space="preserve">+subdirectories()</text>
      <text x="2" y="69" style="clip-path:url(#clipPath8); stroke:none;" xml:space="preserve">+expand()</text>
      <text x="2" y="83" style="clip-path:url(#clipPath8); stroke:none;" xml:space="preserve">+__init__()</text>
    </g>
    <g transform="translate(672,332)" style="text-rendering:geometricPrecision; font-size:11; font-weight:bold; font-family:sans-serif;">
      <text x="29" y="11" style="clip-path:url(#clipPath9); stroke:none;" xml:space="preserve">Directory</text>
    </g>
    <g transform="translate(862,2)" style="font-size:11; fill:rgb(122,207,245); text-rendering:geometricPrecision; font-family:sans-serif; stroke:rgb(122,207,245); font-weight:bold;">
      <rect x="0" y="0" width="80" style="clip-path:url(#clipPath10); stroke:none;" height="140" />
    </g>
    <g transform="translate(862,2)" style="stroke-linecap:butt; font-size:11; text-rendering:geometricPrecision; stroke-linejoin:round; font-family:sans-serif; font-weight:bold; stroke-miterlimit:0;">
      <rect x="0" y="0" width="80" style="clip-path:url(#clipPath10); fill:none;" height="140" />
      <line x1="0" x2="80" y1="14" style="clip-path:url(#clipPath10); fill:none;" y2="14" />
    </g>
    <g style="text-rendering:geometricPrecision; font-size:11; font-family:sans-serif;" transform="translate(862,16)">
      <text x="2" y="13" style="clip-path:url(#clipPath11); stroke:none;" xml:space="preserve">+path</text>
      <line x1="0" x2="80" y1="18" style="stroke-linecap:butt; clip-path:url(#clipPath11); fill:none; stroke-linejoin:bevel; stroke-miterlimit:0;" y2="18" />
      <text x="2" y="31" style="clip-path:url(#clipPath11); stroke:none;" xml:space="preserve">+identify()</text>
      <text x="2" y="45" style="clip-path:url(#clipPath11); stroke:none;" xml:space="preserve">+__init__()</text>
      <text x="2" y="59" style="clip-path:url(#clipPath11); stroke:none;" xml:space="preserve">+_getPath()</text>
      <text x="2" y="73" style="clip-path:url(#clipPath11); stroke:none;" xml:space="preserve">+_buildPath()</text>
      <text x="2" y="87" style="clip-path:url(#clipPath11); stroke:none;" xml:space="preserve">+attribute()</text>
      <text x="2" y="101" style="clip-path:url(#clipPath11); stroke:none;" xml:space="preserve">+line()</text>
      <text x="2" y="115" style="clip-path:url(#clipPath11); stroke:none;" xml:space="preserve">+__init__()</text>
    </g>
    <g transform="translate(862,2)" style="text-rendering:geometricPrecision; font-size:11; font-weight:bold; font-family:sans-serif;">
      <text x="25" y="11" style="clip-path:url(#clipPath12); stroke:none;" xml:space="preserve">Entry</text>
    </g>
    <g transform="translate(342,562)" style="font-size:11; fill:rgb(122,207,245); text-rendering:geometricPrecision; font-family:sans-serif; stroke:rgb(122,207,245); font-weight:bold;">
      <rect x="0" y="0" width="110" style="clip-path:url(#clipPath7); stroke:none;" height="110" />
    </g>
    <g transform="translate(342,562)" style="stroke-linecap:butt; font-size:11; text-rendering:geometricPrecision; stroke-linejoin:round; font-family:sans-serif; font-weight:bold; stroke-miterlimit:0;">
      <rect x="0" y="0" width="110" style="clip-path:url(#clipPath7); fill:none;" height="110" />
      <line x1="0" x2="110" y1="14" style="clip-path:url(#clipPath7); fill:none;" y2="14" />
    </g>
    <g style="text-rendering:geometricPrecision; font-size:11; font-family:sans-serif;" transform="translate(342,576)">
      <text x="2" y="13" style="clip-path:url(#clipPath8); stroke:none;" xml:space="preserve">+onDirectory()</text>
      <text x="2" y="27" style="clip-path:url(#clipPath8); stroke:none;" xml:space="preserve">+__init__()</text>
      <text x="2" y="41" style="clip-path:url(#clipPath8); stroke:none;" xml:space="preserve">+_constructPanel()</text>
      <text x="2" y="55" style="clip-path:url(#clipPath8); stroke:none;" xml:space="preserve">+_expand()</text>
      <text x="2" y="69" style="clip-path:url(#clipPath8); stroke:none;" xml:space="preserve">+_collapse()</text>
      <text x="2" y="83" style="clip-path:url(#clipPath8); stroke:none;" xml:space="preserve">+_select()</text>
    </g>
    <g transform="translate(342,562)" style="text-rendering:geometricPrecision; font-size:11; font-weight:bold; font-family:sans-serif;">
      <text x="31" y="11" style="clip-path:url(#clipPath9); stroke:none;" xml:space="preserve">Explorer</text>
    </g>
    <g transform="translate(862,162)" style="font-size:11; fill:rgb(122,207,245); text-rendering:geometricPrecision; font-family:sans-serif; stroke:rgb(122,207,245); font-weight:bold;">
      <rect x="0" y="0" width="100" style="clip-path:url(#clipPath13); stroke:none;" height="80" />
    </g>
    <g transform="translate(862,162)" style="stroke-linecap:butt; font-size:11; text-rendering:geometricPrecision; stroke-linejoin:round; font-family:sans-serif; font-weight:bold; stroke-miterlimit:0;">
      <rect x="0" y="0" width="100" style="clip-path:url(#clipPath13); fill:none;" height="80" />
      <line x1="0" x2="100" y1="14" style="clip-path:url(#clipPath13); fill:none;" y2="14" />
    </g>
    <g style="text-rendering:geometricPrecision; font-size:11; font-family:sans-serif;" transform="translate(862,176)">
      <text x="2" y="13" style="clip-path:url(#clipPath14); stroke:none;" xml:space="preserve">+identify()</text>
      <text x="2" y="27" style="clip-path:url(#clipPath14); stroke:none;" xml:space="preserve">+createDevice()</text>
      <text x="2" y="41" style="clip-path:url(#clipPath14); stroke:none;" xml:space="preserve">+__init__()</text>
      <text x="2" y="55" style="clip-path:url(#clipPath14); stroke:none;" xml:space="preserve">+_write()</text>
    </g>
    <g transform="translate(862,162)" style="text-rendering:geometricPrecision; font-size:11; font-weight:bold; font-family:sans-serif;">
      <text x="40" y="11" style="clip-path:url(#clipPath15); stroke:none;" xml:space="preserve">File</text>
    </g>
    <g transform="translate(2,12)" style="font-size:11; fill:rgb(122,207,245); text-rendering:geometricPrecision; font-family:sans-serif; stroke:rgb(122,207,245); font-weight:bold;">
      <rect x="0" y="0" width="80" style="clip-path:url(#clipPath16); stroke:none;" height="70" />
    </g>
    <g transform="translate(2,12)" style="stroke-linecap:butt; font-size:11; text-rendering:geometricPrecision; stroke-linejoin:round; font-family:sans-serif; font-weight:bold; stroke-miterlimit:0;">
      <rect x="0" y="0" width="80" style="clip-path:url(#clipPath16); fill:none;" height="70" />
      <line x1="0" x2="80" y1="14" style="clip-path:url(#clipPath16); fill:none;" y2="14" />
    </g>
    <g style="text-rendering:geometricPrecision; font-size:11; font-family:sans-serif;" transform="translate(2,26)">
      <text x="2" y="13" style="clip-path:url(#clipPath17); stroke:none;" xml:space="preserve">+root()</text>
      <text x="2" y="27" style="clip-path:url(#clipPath17); stroke:none;" xml:space="preserve">+expand()</text>
      <text x="2" y="41" style="clip-path:url(#clipPath17); stroke:none;" xml:space="preserve">+__init__()</text>
    </g>
    <g transform="translate(2,12)" style="text-rendering:geometricPrecision; font-size:11; font-weight:bold; font-family:sans-serif;">
      <text x="10" y="11" style="clip-path:url(#clipPath12); stroke:none;" xml:space="preserve">FileSystem</text>
    </g>
    <g transform="translate(162,302)" style="font-size:11; fill:rgb(122,207,245); text-rendering:geometricPrecision; font-family:sans-serif; stroke:rgb(122,207,245); font-weight:bold;">
      <rect x="0" y="0" width="90" style="clip-path:url(#clipPath18); stroke:none;" height="70" />
    </g>
    <g transform="translate(162,302)" style="stroke-linecap:butt; font-size:11; text-rendering:geometricPrecision; stroke-linejoin:round; font-family:sans-serif; font-weight:bold; stroke-miterlimit:0;">
      <rect x="0" y="0" width="90" style="clip-path:url(#clipPath18); fill:none;" height="70" />
      <line x1="0" x2="90" y1="14" style="clip-path:url(#clipPath18); fill:none;" y2="14" />
    </g>
    <g style="text-rendering:geometricPrecision; font-size:11; font-family:sans-serif;" transform="translate(162,316)">
      <text x="2" y="13" style="clip-path:url(#clipPath19); stroke:none;" xml:space="preserve">+find()</text>
      <text x="2" y="27" style="clip-path:url(#clipPath19); stroke:none;" xml:space="preserve">+onDirectory()</text>
      <text x="2" y="41" style="clip-path:url(#clipPath19); stroke:none;" xml:space="preserve">+__init__()</text>
    </g>
    <g transform="translate(162,302)" style="text-rendering:geometricPrecision; font-size:11; font-weight:bold; font-family:sans-serif;">
      <text x="27" y="11" style="clip-path:url(#clipPath3); stroke:none;" xml:space="preserve">Finder</text>
    </g>
    <g transform="translate(212,2)" style="font-size:11; fill:rgb(122,207,245); text-rendering:geometricPrecision; font-family:sans-serif; stroke:rgb(122,207,245); font-weight:bold;">
      <rect x="0" y="0" width="130" style="clip-path:url(#clipPath20); stroke:none;" height="120" />
    </g>
    <g transform="translate(212,2)" style="stroke-linecap:butt; font-size:11; text-rendering:geometricPrecision; stroke-linejoin:round; font-family:sans-serif; font-weight:bold; stroke-miterlimit:0;">
      <rect x="0" y="0" width="130" style="clip-path:url(#clipPath20); fill:none;" height="120" />
      <line x1="0" x2="130" y1="14" style="clip-path:url(#clipPath20); fill:none;" y2="14" />
    </g>
    <g style="text-rendering:geometricPrecision; font-size:11; font-family:sans-serif;" transform="translate(212,16)">
      <text x="2" y="13" style="clip-path:url(#clipPath21); stroke:none;" xml:space="preserve">+onCharacterDevice()</text>
      <text x="2" y="27" style="clip-path:url(#clipPath21); stroke:none;" xml:space="preserve">+onBlockDevice()</text>
      <text x="2" y="41" style="clip-path:url(#clipPath21); stroke:none;" xml:space="preserve">+onDirectory()</text>
      <text x="2" y="55" style="clip-path:url(#clipPath21); stroke:none;" xml:space="preserve">+onFile()</text>
      <text x="2" y="69" style="clip-path:url(#clipPath21); stroke:none;" xml:space="preserve">+onLink()</text>
      <text x="2" y="83" style="clip-path:url(#clipPath21); stroke:none;" xml:space="preserve">+onNamedPipe()</text>
      <text x="2" y="97" style="clip-path:url(#clipPath21); stroke:none;" xml:space="preserve">+onSocket()</text>
    </g>
    <g transform="translate(212,2)" style="text-rendering:geometricPrecision; font-size:11; font-weight:bold; font-family:sans-serif;">
      <text x="38" y="11" style="clip-path:url(#clipPath22); stroke:none;" xml:space="preserve">Inspector</text>
    </g>
    <g transform="translate(912,372)" style="font-size:11; fill:rgb(122,207,245); text-rendering:geometricPrecision; font-family:sans-serif; stroke:rgb(122,207,245); font-weight:bold;">
      <rect x="0" y="0" width="80" style="clip-path:url(#clipPath23); stroke:none;" height="40" />
    </g>
    <g transform="translate(912,372)" style="stroke-linecap:butt; font-size:11; text-rendering:geometricPrecision; stroke-linejoin:round; font-family:sans-serif; font-weight:bold; stroke-miterlimit:0;">
      <rect x="0" y="0" width="80" style="clip-path:url(#clipPath23); fill:none;" height="40" />
      <line x1="0" x2="80" y1="14" style="clip-path:url(#clipPath23); fill:none;" y2="14" />
    </g>
    <g style="text-rendering:geometricPrecision; font-size:11; font-family:sans-serif;" transform="translate(912,386)">
      <text x="2" y="13" style="clip-path:url(#clipPath24); stroke:none;" xml:space="preserve">+identify()</text>
    </g>
    <g transform="translate(912,372)" style="text-rendering:geometricPrecision; font-size:11; font-weight:bold; font-family:sans-serif;">
      <text x="28" y="11" style="clip-path:url(#clipPath12); stroke:none;" xml:space="preserve">Link</text>
    </g>
    <g transform="translate(1112,372)" style="font-size:11; fill:rgb(122,207,245); text-rendering:geometricPrecision; font-family:sans-serif; stroke:rgb(122,207,245); font-weight:bold;">
      <rect x="0" y="0" width="90" style="clip-path:url(#clipPath1); stroke:none;" height="40" />
    </g>
    <g transform="translate(1112,372)" style="stroke-linecap:butt; font-size:11; text-rendering:geometricPrecision; stroke-linejoin:round; font-family:sans-serif; font-weight:bold; stroke-miterlimit:0;">
      <rect x="0" y="0" width="90" style="clip-path:url(#clipPath1); fill:none;" height="40" />
      <line x1="0" x2="90" y1="14" style="clip-path:url(#clipPath1); fill:none;" y2="14" />
    </g>
    <g style="text-rendering:geometricPrecision; font-size:11; font-family:sans-serif;" transform="translate(1112,386)">
      <text x="2" y="13" style="clip-path:url(#clipPath2); stroke:none;" xml:space="preserve">+identify()</text>
    </g>
    <g transform="translate(1112,372)" style="text-rendering:geometricPrecision; font-size:11; font-weight:bold; font-family:sans-serif;">
      <text x="14" y="11" style="clip-path:url(#clipPath3); stroke:none;" xml:space="preserve">NamedPipe</text>
    </g>
    <g transform="translate(692,502)" style="font-size:11; fill:rgb(122,207,245); text-rendering:geometricPrecision; font-family:sans-serif; stroke:rgb(122,207,245); font-weight:bold;">
      <rect x="0" y="0" width="80" style="clip-path:url(#clipPath25); stroke:none;" height="50" />
    </g>
    <g transform="translate(692,502)" style="stroke-linecap:butt; font-size:11; text-rendering:geometricPrecision; stroke-linejoin:round; font-family:sans-serif; font-weight:bold; stroke-miterlimit:0;">
      <rect x="0" y="0" width="80" style="clip-path:url(#clipPath25); fill:none;" height="50" />
      <line x1="0" x2="80" y1="14" style="clip-path:url(#clipPath25); fill:none;" y2="14" />
    </g>
    <g style="text-rendering:geometricPrecision; font-size:11; font-family:sans-serif;" transform="translate(692,516)">
      <text x="2" y="13" style="clip-path:url(#clipPath26); stroke:none;" xml:space="preserve">+__init__()</text>
      <text x="2" y="27" style="clip-path:url(#clipPath26); stroke:none;" xml:space="preserve">+_buildPath()</text>
    </g>
    <g transform="translate(692,502)" style="text-rendering:geometricPrecision; font-size:11; font-weight:bold; font-family:sans-serif;">
      <text x="27" y="11" style="clip-path:url(#clipPath12); stroke:none;" xml:space="preserve">Root</text>
    </g>
    <g transform="translate(272,252)" style="font-size:11; fill:rgb(122,207,245); text-rendering:geometricPrecision; font-family:sans-serif; stroke:rgb(122,207,245); font-weight:bold;">
      <rect x="0" y="0" width="130" style="clip-path:url(#clipPath27); stroke:none;" height="180" />
    </g>
    <g transform="translate(272,252)" style="stroke-linecap:butt; font-size:11; text-rendering:geometricPrecision; stroke-linejoin:round; font-family:sans-serif; font-weight:bold; stroke-miterlimit:0;">
      <rect x="0" y="0" width="130" style="clip-path:url(#clipPath27); fill:none;" height="180" />
      <line x1="0" x2="130" y1="14" style="clip-path:url(#clipPath27); fill:none;" y2="14" />
    </g>
    <g style="text-rendering:geometricPrecision; font-size:11; font-family:sans-serif;" transform="translate(272,266)">
      <text x="2" y="13" style="clip-path:url(#clipPath28); stroke:none;" xml:space="preserve">+_INDENT</text>
      <line x1="0" x2="130" y1="18" style="stroke-linecap:butt; clip-path:url(#clipPath28); fill:none; stroke-linejoin:bevel; stroke-miterlimit:0;" y2="18" />
      <text x="2" y="31" style="clip-path:url(#clipPath28); stroke:none;" xml:space="preserve">+onCharacterDevice()</text>
      <text x="2" y="45" style="clip-path:url(#clipPath28); stroke:none;" xml:space="preserve">+onBlockDevice()</text>
      <text x="2" y="59" style="clip-path:url(#clipPath28); stroke:none;" xml:space="preserve">+onDirectory()</text>
      <text x="2" y="73" style="clip-path:url(#clipPath28); stroke:none;" xml:space="preserve">+onFile()</text>
      <text x="2" y="87" style="clip-path:url(#clipPath28); stroke:none;" xml:space="preserve">+onLink()</text>
      <text x="2" y="101" style="clip-path:url(#clipPath28); stroke:none;" xml:space="preserve">+onNamedPipe()</text>
      <text x="2" y="115" style="clip-path:url(#clipPath28); stroke:none;" xml:space="preserve">+onSocket()</text>
      <text x="2" y="129" style="clip-path:url(#clipPath28); stroke:none;" xml:space="preserve">+render()</text>
      <text x="2" y="143" style="clip-path:url(#clipPath28); stroke:none;" xml:space="preserve">+__init__()</text>
      <text x="2" y="157" style="clip-path:url(#clipPath28); stroke:none;" xml:space="preserve">+_render()</text>
    </g>
    <g transform="translate(272,252)" style="text-rendering:geometricPrecision; font-size:11; font-weight:bold; font-family:sans-serif;">
      <text x="20" y="11" style="clip-path:url(#clipPath22); stroke:none;" xml:space="preserve">SimpleRenderer</text>
    </g>
    <g transform="translate(1012,372)" style="font-size:11; fill:rgb(122,207,245); text-rendering:geometricPrecision; font-family:sans-serif; stroke:rgb(122,207,245); font-weight:bold;">
      <rect x="0" y="0" width="80" style="clip-path:url(#clipPath23); stroke:none;" height="40" />
    </g>
    <g transform="translate(1012,372)" style="stroke-linecap:butt; font-size:11; text-rendering:geometricPrecision; stroke-linejoin:round; font-family:sans-serif; font-weight:bold; stroke-miterlimit:0;">
      <rect x="0" y="0" width="80" style="clip-path:url(#clipPath23); fill:none;" height="40" />
      <line x1="0" x2="80" y1="14" style="clip-path:url(#clipPath23); fill:none;" y2="14" />
    </g>
    <g style="text-rendering:geometricPrecision; font-size:11; font-family:sans-serif;" transform="translate(1012,386)">
      <text x="2" y="13" style="clip-path:url(#clipPath24); stroke:none;" xml:space="preserve">+identify()</text>
    </g>
    <g transform="translate(1012,372)" style="text-rendering:geometricPrecision; font-size:11; font-weight:bold; font-family:sans-serif;">
      <text x="22" y="11" style="clip-path:url(#clipPath12); stroke:none;" xml:space="preserve">Socket</text>
    </g>
    <g transform="translate(222,582)" style="font-size:11; fill:rgb(122,207,245); text-rendering:geometricPrecision; font-family:sans-serif; stroke:rgb(122,207,245); font-weight:bold;">
      <rect x="0" y="0" width="100" style="clip-path:url(#clipPath29); stroke:none;" height="70" />
    </g>
    <g transform="translate(222,582)" style="stroke-linecap:butt; font-size:11; text-rendering:geometricPrecision; stroke-linejoin:round; font-family:sans-serif; font-weight:bold; stroke-miterlimit:0;">
      <rect x="0" y="0" width="100" style="clip-path:url(#clipPath29); fill:none;" height="70" />
      <line x1="0" x2="100" y1="14" style="clip-path:url(#clipPath29); fill:none;" y2="14" />
    </g>
    <g style="text-rendering:geometricPrecision; font-size:11; font-family:sans-serif;" transform="translate(222,596)">
      <text x="2" y="13" style="clip-path:url(#clipPath30); stroke:none;" xml:space="preserve">+onDirectory()</text>
      <text x="2" y="27" style="clip-path:url(#clipPath30); stroke:none;" xml:space="preserve">+__init__()</text>
      <text x="2" y="41" style="clip-path:url(#clipPath30); stroke:none;" xml:space="preserve">+_render()</text>
    </g>
    <g transform="translate(222,582)" style="text-rendering:geometricPrecision; font-size:11; font-weight:bold; font-family:sans-serif;">
      <text x="12" y="11" style="clip-path:url(#clipPath15); stroke:none;" xml:space="preserve">TreeRenderer</text>
    </g>
    <g transform="translate(682,392)" style="font-size:11; stroke-linecap:butt; text-rendering:geometricPrecision; font-family:sans-serif; stroke-linejoin:round;">
      <line x1="50" x2="50" y1="50" style="clip-path:url(#clipPath31); fill:none;" y2="109" />
      <polygon style="fill:rgb(122,207,245); clip-path:url(#clipPath31); stroke:none;" points=" 50 50 44 62 56 62" />
      <polygon style="fill:none; clip-path:url(#clipPath31);" points=" 50 50 44 62 56 62" />
    </g>
    <g transform="translate(852,92)" style="font-size:11; stroke-linecap:butt; text-rendering:geometricPrecision; font-family:sans-serif; stroke-linejoin:round;">
      <line x1="50" x2="50" y1="50" style="clip-path:url(#clipPath32); fill:none;" y2="69" />
      <polygon style="fill:rgb(122,207,245); clip-path:url(#clipPath32); stroke:none;" points=" 50 50 44 62 56 62" />
      <polygon style="fill:none; clip-path:url(#clipPath32);" points=" 50 50 44 62 56 62" />
    </g>
    <g transform="translate(852,192)" style="font-size:11; stroke-linecap:butt; text-rendering:geometricPrecision; font-family:sans-serif; stroke-linejoin:round;">
      <line x1="50" x2="50" y1="50" style="clip-path:url(#clipPath33); fill:none;" y2="60" />
      <line x1="50" x2="310" y1="60" style="clip-path:url(#clipPath33); fill:none;" y2="60" />
      <line x1="310" x2="310" y1="60" style="clip-path:url(#clipPath33); fill:none;" y2="179" />
      <polygon style="fill:rgb(122,207,245); clip-path:url(#clipPath33); stroke:none;" points=" 50 50 44 62 56 62" />
      <polygon style="fill:none; clip-path:url(#clipPath33);" points=" 50 50 44 62 56 62" />
    </g>
    <g transform="translate(852,192)" style="font-size:11; stroke-linecap:butt; text-rendering:geometricPrecision; font-family:sans-serif; stroke-linejoin:round;">
      <line x1="50" x2="50" y1="50" style="clip-path:url(#clipPath34); fill:none;" y2="60" />
      <line x1="50" x2="200" y1="60" style="clip-path:url(#clipPath34); fill:none;" y2="60" />
      <line x1="200" x2="200" y1="60" style="clip-path:url(#clipPath34); fill:none;" y2="179" />
      <polygon style="fill:rgb(122,207,245); clip-path:url(#clipPath34); stroke:none;" points=" 50 50 44 62 56 62" />
      <polygon style="fill:none; clip-path:url(#clipPath34);" points=" 50 50 44 62 56 62" />
    </g>
    <g transform="translate(852,192)" style="font-size:11; stroke-linecap:butt; text-rendering:geometricPrecision; font-family:sans-serif; stroke-linejoin:round;">
      <line x1="50" x2="50" y1="50" style="clip-path:url(#clipPath35); fill:none;" y2="60" />
      <line x1="50" x2="100" y1="60" style="clip-path:url(#clipPath35); fill:none;" y2="60" />
      <line x1="100" x2="100" y1="60" style="clip-path:url(#clipPath35); fill:none;" y2="179" />
      <polygon style="fill:rgb(122,207,245); clip-path:url(#clipPath35); stroke:none;" points=" 50 50 44 62 56 62" />
      <polygon style="fill:none; clip-path:url(#clipPath35);" points=" 50 50 44 62 56 62" />
    </g>
    <g transform="translate(802,192)" style="font-size:11; stroke-linecap:butt; text-rendering:geometricPrecision; font-family:sans-serif; stroke-linejoin:round;">
      <line x1="100" x2="100" y1="50" style="clip-path:url(#clipPath35); fill:none;" y2="60" />
      <line x1="100" x2="50" y1="60" style="clip-path:url(#clipPath35); fill:none;" y2="60" />
      <line x1="50" x2="50" y1="60" style="clip-path:url(#clipPath35); fill:none;" y2="179" />
      <polygon style="fill:rgb(122,207,245); clip-path:url(#clipPath35); stroke:none;" points=" 100 50 94 62 106 62" />
      <polygon style="fill:none; clip-path:url(#clipPath35);" points=" 100 50 94 62 106 62" />
    </g>
    <g transform="translate(682,192)" style="font-size:11; stroke-linecap:butt; text-rendering:geometricPrecision; font-family:sans-serif; stroke-linejoin:round;">
      <line x1="220" x2="220" y1="50" style="clip-path:url(#clipPath36); fill:none;" y2="60" />
      <line x1="220" x2="50" y1="60" style="clip-path:url(#clipPath36); fill:none;" y2="60" />
      <line x1="50" x2="50" y1="60" style="clip-path:url(#clipPath36); fill:none;" y2="139" />
      <polygon style="fill:rgb(122,207,245); clip-path:url(#clipPath36); stroke:none;" points=" 220 50 214 62 226 62" />
      <polygon style="fill:none; clip-path:url(#clipPath36);" points=" 220 50 214 62 226 62" />
    </g>
    <g transform="translate(542,192)" style="font-size:11; stroke-linecap:butt; text-rendering:geometricPrecision; font-family:sans-serif; stroke-linejoin:round;">
      <line x1="360" x2="360" y1="50" style="clip-path:url(#clipPath37); fill:none;" y2="60" />
      <line x1="360" x2="50" y1="60" style="clip-path:url(#clipPath37); fill:none;" y2="60" />
      <line x1="50" x2="50" y1="60" style="clip-path:url(#clipPath37); fill:none;" y2="179" />
      <polygon style="fill:rgb(122,207,245); clip-path:url(#clipPath37); stroke:none;" points=" 360 50 354 62 366 62" />
      <polygon style="fill:none; clip-path:url(#clipPath37);" points=" 360 50 354 62 366 62" />
    </g>
    <g transform="translate(222,72)" style="font-size:11; stroke-linecap:butt; text-rendering:geometricPrecision; font-family:sans-serif; stroke-linejoin:round;">
      <line x1="50" x2="50" y1="50" style="clip-path:url(#clipPath38); fill:none;" y2="100" />
      <line x1="50" x2="110" y1="100" style="clip-path:url(#clipPath38); fill:none;" y2="100" />
      <line x1="110" x2="110" y1="100" style="clip-path:url(#clipPath38); fill:none;" y2="179" />
      <polygon style="fill:rgb(122,207,245); clip-path:url(#clipPath38); stroke:none;" points=" 50 50 44 62 56 62" />
      <polygon style="fill:none; clip-path:url(#clipPath38);" points=" 50 50 44 62 56 62" />
    </g>
    <g transform="translate(162,72)" style="font-size:11; stroke-linecap:butt; text-rendering:geometricPrecision; font-family:sans-serif; stroke-linejoin:round;">
      <line x1="110" x2="110" y1="50" style="clip-path:url(#clipPath39); fill:none;" y2="100" />
      <line x1="110" x2="50" y1="100" style="clip-path:url(#clipPath39); fill:none;" y2="100" />
      <line x1="50" x2="50" y1="100" style="clip-path:url(#clipPath39); fill:none;" y2="229" />
      <polygon style="fill:rgb(122,207,245); clip-path:url(#clipPath39); stroke:none;" points=" 110 50 104 62 116 62" />
      <polygon style="fill:none; clip-path:url(#clipPath39);" points=" 110 50 104 62 116 62" />
    </g>
    <g transform="translate(292,382)" style="font-size:11; stroke-linecap:butt; text-rendering:geometricPrecision; font-family:sans-serif; stroke-linejoin:round;">
      <line x1="50" x2="50" y1="50" style="clip-path:url(#clipPath38); fill:none;" y2="100" />
      <line x1="50" x2="110" y1="100" style="clip-path:url(#clipPath38); fill:none;" y2="100" />
      <line x1="110" x2="110" y1="100" style="clip-path:url(#clipPath38); fill:none;" y2="179" />
      <polygon style="fill:rgb(122,207,245); clip-path:url(#clipPath38); stroke:none;" points=" 50 50 44 62 56 62" />
      <polygon style="fill:none; clip-path:url(#clipPath38);" points=" 50 50 44 62 56 62" />
    </g>
    <g transform="translate(222,382)" style="font-size:11; stroke-linecap:butt; text-rendering:geometricPrecision; font-family:sans-serif; stroke-linejoin:round;">
      <line x1="110" x2="110" y1="50" style="clip-path:url(#clipPath40); fill:none;" y2="100" />
      <line x1="110" x2="50" y1="100" style="clip-path:url(#clipPath40); fill:none;" y2="100" />
      <line x1="50" x2="50" y1="100" style="clip-path:url(#clipPath40); fill:none;" y2="199" />
      <polygon style="fill:rgb(122,207,245); clip-path:url(#clipPath40); stroke:none;" points=" 110 50 104 62 116 62" />
      <polygon style="fill:none; clip-path:url(#clipPath40);" points=" 110 50 104 62 116 62" />
    </g>
  </g>
</svg>
